<?xml version="1.0" encoding="UTF-8" standalone="no"?>
<!-- Created with Inkscape (http://www.inkscape.org/) -->

<svg
   xmlns:dc="http://purl.org/dc/elements/1.1/"
   xmlns:cc="http://creativecommons.org/ns#"
   xmlns:rdf="http://www.w3.org/1999/02/22-rdf-syntax-ns#"
   xmlns:svg="http://www.w3.org/2000/svg"
   xmlns="http://www.w3.org/2000/svg"
   xmlns:sodipodi="http://sodipodi.sourceforge.net/DTD/sodipodi-0.dtd"
   xmlns:inkscape="http://www.inkscape.org/namespaces/inkscape"
   id="svg33061"
   version="1.1"
   inkscape:version="0.91 r13725"
   xml:space="preserve"
   width="781.46161"
   height="145.08685"
   viewBox="0 0 781.4616 145.08686"
   sodipodi:docname="code_opt_3.svg"><metadata
     id="metadata33067"><rdf:RDF><cc:Work
         rdf:about=""><dc:format>image/svg+xml</dc:format><dc:type
           rdf:resource="http://purl.org/dc/dcmitype/StillImage" /><dc:title></dc:title></cc:Work></rdf:RDF></metadata><defs
     id="defs33065"><clipPath
       clipPathUnits="userSpaceOnUse"
       id="clipPath33085"><path
         d="m 46.891,260.563 593.629,0 0,-233.547 -593.629,0 0,233.547 z"
         id="path33087"
         inkscape:connector-curvature="0" /></clipPath></defs><sodipodi:namedview
     pagecolor="#ffffff"
     bordercolor="#666666"
     borderopacity="1"
     objecttolerance="10"
     gridtolerance="10"
     guidetolerance="10"
     inkscape:pageopacity="0"
     inkscape:pageshadow="2"
     inkscape:window-width="2560"
     inkscape:window-height="1387"
     id="namedview33063"
     showgrid="false"
     inkscape:zoom="2.1890711"
     inkscape:cx="452.83181"
     inkscape:cy="29.801954"
     inkscape:window-x="-8"
     inkscape:window-y="-8"
     inkscape:window-maximized="1"
     inkscape:current-layer="g33069"
     fit-margin-top="0"
     fit-margin-left="0"
     fit-margin-right="0"
     fit-margin-bottom="0" /><g
     id="g33069"
     inkscape:groupmode="layer"
     inkscape:label="code_opt"
     transform="matrix(1.25,0,0,-1.25,-17.938416,307.22764)"><g
       clip-path="url(#clipPath33085)"
       id="g33083"
       transform="matrix(1,0,0,0.33031554,0,132.76394)"><path
         inkscape:connector-curvature="0"
         id="path33089"
         style="fill:#ebebeb;fill-opacity:1;fill-rule:nonzero;stroke:none"
         d="m 46.891,260.563 592.629,0 0,-232.547 -592.629,0 0,232.547 z" /><path
         inkscape:connector-curvature="0"
         id="path33091"
         style="fill:none;stroke:#ffffff;stroke-width:0.53348899;stroke-linecap:butt;stroke-linejoin:round;stroke-miterlimit:10;stroke-dasharray:none;stroke-opacity:1"
         d="m 174.605,28.016 0,232.547" /><path
         inkscape:connector-curvature="0"
         id="path33093"
         style="fill:none;stroke:#ffffff;stroke-width:0.53348899;stroke-linecap:butt;stroke-linejoin:round;stroke-miterlimit:10;stroke-dasharray:none;stroke-opacity:1"
         d="m 373.613,28.016 0,232.547" /><path
         inkscape:connector-curvature="0"
         id="path33095"
         style="fill:none;stroke:#ffffff;stroke-width:0.53348899;stroke-linecap:butt;stroke-linejoin:round;stroke-miterlimit:10;stroke-dasharray:none;stroke-opacity:1"
         d="m 572.621,28.016 0,232.547" /><path
         inkscape:connector-curvature="0"
         id="path33097"
         style="fill:none;stroke:#ffffff;stroke-width:1.06697798;stroke-linecap:butt;stroke-linejoin:round;stroke-miterlimit:10;stroke-dasharray:none;stroke-opacity:1"
         d="m 46.891,32.008 592.629,0" /><path
         inkscape:connector-curvature="0"
         id="path33099"
         style="fill:none;stroke:#ffffff;stroke-width:1.06697798;stroke-linecap:butt;stroke-linejoin:round;stroke-miterlimit:10;stroke-dasharray:none;stroke-opacity:1"
         d="m 46.891,85.203 592.629,0" /><path
         inkscape:connector-curvature="0"
         id="path33101"
         style="fill:none;stroke:#ffffff;stroke-width:1.06697798;stroke-linecap:butt;stroke-linejoin:round;stroke-miterlimit:10;stroke-dasharray:none;stroke-opacity:1"
         d="m 46.891,138.398 592.629,0" /><path
         inkscape:connector-curvature="0"
         id="path33103"
         style="fill:none;stroke:#ffffff;stroke-width:1.06697798;stroke-linecap:butt;stroke-linejoin:round;stroke-miterlimit:10;stroke-dasharray:none;stroke-opacity:1"
         d="m 46.891,191.594 592.629,0" /><path
         inkscape:connector-curvature="0"
         id="path33105"
         style="fill:none;stroke:#ffffff;stroke-width:1.06697798;stroke-linecap:butt;stroke-linejoin:round;stroke-miterlimit:10;stroke-dasharray:none;stroke-opacity:1"
         d="m 46.891,244.789 592.629,0" /><path
         inkscape:connector-curvature="0"
         id="path33107"
         style="fill:none;stroke:#ffffff;stroke-width:1.06697798;stroke-linecap:butt;stroke-linejoin:round;stroke-miterlimit:10;stroke-dasharray:none;stroke-opacity:1"
         d="m 75.102,28.016 0,232.547" /><path
         inkscape:connector-curvature="0"
         id="path33109"
         style="fill:none;stroke:#ffffff;stroke-width:1.06697798;stroke-linecap:butt;stroke-linejoin:round;stroke-miterlimit:10;stroke-dasharray:none;stroke-opacity:1"
         d="m 274.109,28.016 0,232.547" /><path
         inkscape:connector-curvature="0"
         id="path33111"
         style="fill:none;stroke:#ffffff;stroke-width:1.06697798;stroke-linecap:butt;stroke-linejoin:round;stroke-miterlimit:10;stroke-dasharray:none;stroke-opacity:1"
         d="m 473.117,28.016 0,232.547" /><path
         inkscape:connector-curvature="0"
         id="path33113"
         style="fill:none;stroke:#d7191c;stroke-width:2.13395691;stroke-linecap:butt;stroke-linejoin:round;stroke-miterlimit:1;stroke-dasharray:none;stroke-opacity:1"
         d="m 73.828,81.004 1.91,-0.109 1.91,-0.043 1.911,0.086 1.914,3.359 1.91,-0.223 1.91,0.395 1.91,-0.469 1.91,-6.25 1.91,6.473 1.911,-0.051 1.91,0.176 1.91,0.347 1.91,-0.57 1.91,0.344 1.91,-0.344 1.914,0.074 1.911,0.371 1.91,-1.683 1.91,0.242 1.91,-0.051 1.91,-2.207 1.91,3.449 1.911,-0.172 1.91,0.247 1.91,-0.344 1.91,0.949 1.91,-0.504 1.914,-2.453 1.91,-1.086 1.911,0.023 1.91,-0.214 1.91,0.148 1.91,-0.062 1.91,3.32 1.91,0.125 1.91,0.074 1.911,-3.453 1.91,-0.109 1.91,3.539 1.914,0 1.91,-0.2 1.91,-0.125 1.91,0.348 1.911,0.805 1.91,-0.781 1.91,-0.024 1.91,-2.109 1.91,0.863 1.91,-0.426 1.911,0.235 1.91,-3.321 1.91,1.727 1.914,3.031 1.91,-0.621 1.91,-0.863 1.91,-0.188 1.911,1.242 1.91,0.231 1.91,-1.449 1.91,-0.836 1.91,2.484 1.91,-0.246 1.911,1.207 1.91,-1.109 1.914,0.297 1.91,0.531 1.91,-4.176 1.91,0.633 1.91,-0.149 1.911,-0.379 1.91,0.704 1.91,-0.789 1.91,3.453 1.91,0.777 1.91,-0.48 1.91,0.128 1.915,0.61 1.91,-23.934 1.91,-6.351 1.91,0.007 1.91,-0.007 1.91,0 1.91,0.004 1.911,0 1.91,49.328 1.91,37.48 1.91,5.539 1.91,0.719 1.91,-1.199 1.914,0.844 1.911,-3.36 1.91,5.918 1.91,-7.109 1.91,7.426 1.91,-3.176 1.91,-1.02 1.911,0.512 1.91,-9.945 1.91,-11.008 1.91,0.066 1.91,0.141 1.914,-0.781 1.91,-0.028 1.911,0.711 1.91,-0.656 1.91,1.48 1.91,-1.382 1.91,-0.071 1.91,0.278 1.91,-0.512 1.911,-0.109 1.91,0.789 1.91,44.238 1.914,-2.899 1.91,1.239 1.91,-0.723 1.91,2.242 1.911,-0.027 1.91,-4.461 1.91,7.176 1.91,-2.489 1.91,-3.523 1.91,0.684 1.911,1.933 1.91,-5.929 1.914,-2.051 1.91,-125.313 1.91,0.364 1.91,0.007 1.91,-0.273 1.911,-0.012 1.91,0.379 1.91,-0.121 1.91,-0.344 1.91,0.11 1.91,0.254 1.911,-0.133 1.91,-0.309 1.914,0.215 1.91,0.207 1.91,-0.191 1.91,193.535 1.91,0.605 1.911,-7.644 1.91,0.414 1.91,7.316 1.91,-0.746 1.91,0.41 1.91,-9.781 1.91,6.891 1.915,1.207 1.91,1.242 1.91,-1.367 1.91,-11.426 1.91,11.387 1.91,-144.485 1.91,0.637 1.911,0.426 1.91,-0.278 1.91,-0.273 1.91,-2.477 1.91,2.254 1.914,-6.191 1.91,3.937 1.911,-0.461 1.91,-0.914 1.91,0.407 1.91,3.769 1.91,-1.004 1.91,0.852 1.911,-0.196 1.91,-0.125 1.91,0.172 1.91,0.325 1.91,-0.325 1.914,0.2 1.91,-3.454 1.911,-0.628 1.91,0.304 1.91,0.11 1.91,0.019 1.91,0 1.91,0.531 1.91,-0.422 1.911,-0.109 1.91,0.086 1.91,-0.043 1.914,-0.148 1.91,0.3 1.91,0.317 1.91,-0.574 1.911,0.086 1.91,0.019 1.91,-0.086 1.91,-2.437 1.91,2.48 1.91,0.555 1.911,-0.832 1.91,0.386 1.914,0.817 1.91,-0.817 1.91,-0.152 1.91,1.125 1.91,-1.144 1.911,0.238 1.91,0.683 1.91,-0.816 1.91,0.008 1.91,1.055 1.91,-1.235 1.911,0.172 1.914,0.402 1.91,2.957 1.91,1.266 1.91,-0.566 1.91,-0.551 1.91,0.91 1.911,-1.309 1.91,0.473 120.359,0" /><path
         inkscape:connector-curvature="0"
         id="path33115"
         style="fill:none;stroke:#99d594;stroke-width:2.13395691;stroke-linecap:butt;stroke-linejoin:round;stroke-miterlimit:1;stroke-dasharray:none;stroke-opacity:1"
         d="m 75.102,74.82 0.636,0.118 0.637,0 0.637,0.015 0.636,0.051 0.637,0.125 0.637,-0.274 0.637,0.235 0.64,0.441 0.637,-0.676 0.637,0.098 0.636,-0.047 0.637,-0.101 0.637,0.117 0.637,0 0.636,0.031 0.637,-0.027 0.637,0.418 0.636,-0.391 0.637,-0.031 0.637,-0.133 0.637,-0.035 0.636,0.019 0.637,-0.132 0.637,0.082 0.636,0.875 0.637,-0.571 0.637,-0.273 0.637,0.051 0.636,0.101 0.637,-0.265 0.637,-0.618 0.636,0.782 0.637,0.761 0.637,-0.562 0.637,-0.184 0.636,0.067 0.637,0.375 0.637,-0.422 0.637,0.113 0.636,0.051 0.637,0.035 0.637,0.508 0.636,-1.254 0.637,0.68 0.641,-0.344 0.636,-1.551 0.637,5.012 0.637,0.019 0.637,-0.605 0.636,-0.094 0.637,-0.113 0.637,0.094 0.636,0.336 0.637,-0.149 0.637,0.629 0.637,-0.703 0.636,0.223 0.637,-0.204 0.637,-0.039 0.637,-0.281 0.636,0.149 0.637,0.039 0.637,0.207 0.636,0.511 0.637,-0.457 0.637,-0.168 0.637,0 0.636,-0.425 0.637,0.351 0.637,-0.168 0.636,0.371 0.637,-0.261 0.637,0.988 0.637,-0.914 0.636,0.113 0.637,-0.336 0.637,0.223 0.636,-0.016 0.637,0.356 0.637,-0.075 0.637,-0.019 0.64,0.437 0.637,-0.382 0.637,-0.129 0.636,-0.207 0.637,-0.223 0.637,0.352 0.637,0.132 0.636,0.039 0.637,-0.019 0.637,0.496 0.636,-0.496 0.637,-0.188 0.637,-0.132 0.637,-0.036 0.636,-1.765 0.637,-1.285 0.637,1.855 0.636,-1.183 0.637,-0.051 0.637,0.258 0.637,-0.29 0.636,-0.167 0.637,-0.114 0.637,0.098 0.636,0.035 0.637,-0.863 0.637,-0.739 0.637,3.915 0.636,-4.086 0.637,0.421 0.637,0.969 0.637,-0.386 0.636,3.582 0.637,-2.09 0.637,2.074 0.636,-0.246 0.641,0.246 0.637,-0.172 0.636,0.508 0.637,-0.301 0.637,0.133 0.637,-0.246 0.636,-0.035 0.637,0.074 0.637,-0.02 0.636,-0.074 0.637,0 0.637,0.699 0.637,-0.437 0.636,-0.02 0.637,-0.187 0.637,0.398 0.637,-0.191 0.636,-0.168 0.637,0.039 0.637,-0.188 0.636,0.813 0.637,-0.457 0.637,-0.074 0.637,-0.039 0.636,0.039 0.637,0 0.637,-0.094 0.636,-0.078 0.637,-0.11 0.637,0.735 0.637,-0.379 0.636,-0.188 0.637,-0.168 0.637,0.204 0.636,0 0.637,0.019 0.637,-4.918 0.641,0.926 0.636,-1.496 0.637,5.527 0.637,-3.211 0.636,0.289 0.637,0.117 1.91,0.047 0.637,0.035 0.637,0.305 0.636,-0.32 0.637,0.726 0.637,-0.375 0.637,-0.371 0.636,0.086 0.637,0 0.637,-0.019 0.636,0.051 0.637,0 0.637,0.593 0.637,-0.32 0.636,-0.324 0.637,0.066 0.637,-0.082 0.636,-0.016 0.637,-0.117 0.637,0.2 0.637,-0.083 0.636,0.657 0.637,-0.442 0.637,-0.109 0.637,-0.156 0.636,-0.067 0.637,0.149 0.637,-0.282 0.636,0.266 0.641,-0.363 0.637,1.039 0.636,-0.906 0.637,0.132 0.637,-0.019 0.637,0.559 0.636,-0.559 0.637,-0.082 0.637,0.199 0.636,0.016 0.637,0.558 0.637,-0.304 0.637,-0.321 0.636,0.102 0.637,-0.035 0.637,0.101 0.637,0.075 0.636,-0.04 0.637,-0.152 0.637,0.797 0.636,-0.813 0.637,0.168 0.637,-0.234 0.637,0.184 0.636,-0.219 0.637,0.184 0.637,0.191 0.636,-0.324 0.637,0.742 0.637,-0.66 0.637,-0.215 0.636,0.183 0.637,0 0.637,-0.066 0.636,0 0.637,-0.148 0.637,1.062 0.641,-0.758 0.636,-0.289 0.637,0.133 0.637,0 0.636,0.031 0.637,-0.031 0.637,-17.965 0.637,-1.984 0.636,-0.004 1.274,0 0.636,-0.004 1.274,0.008 0.637,-0.004 2.546,0 0.637,-0.004 0.637,0.004 0.637,0 0.636,0.004 0.637,-0.004 1.91,0 0.637,53.363 0.637,30.664 0.636,2.918 0.637,-3.031 0.637,1.805 0.637,1.621 0.636,-0.93 0.637,-5.41 0.637,8.68 0.636,-1.207 0.641,-2.692 0.637,4.207 0.636,-0.851 0.637,-2.489 0.637,-0.261 0.637,2.879 0.636,-6.071 0.637,7.551 0.637,0.211 0.636,-8.773 0.637,5.203 0.637,-1.676 0.637,0.492 0.636,6.078 0.637,-9.301 0.637,8.204 0.637,-5.942 0.636,5.442 0.637,-2.653 0.637,4.164 0.636,-4.398 0.637,0.687 0.637,5.852 0.637,-13.527 0.636,9.75 0.637,-6.403 0.637,-3.215 0.636,6.227 0.637,6.223 0.637,27.367 0.637,28.773 0.636,-1.418 0.637,7.547 0.637,-7.234 0.636,0.289 0.637,0.492 0.637,-3.551 0.641,8.516 0.636,-1.36 0.637,2.864 0.637,-9.688 0.636,13.742 0.637,-12.019 0.637,3.351 0.637,1.262 0.636,-2.39 0.637,-3.7 0.637,0.508 0.636,11.735 0.637,-10.79 0.637,4.411 0.637,-0.543 0.636,-2.008 0.637,5.097 0.637,-8.257 0.636,4.668 0.637,-4.911 0.637,7.887 0.637,-8.937 0.636,4.226 0.637,-5.16 0.637,0.551 0.636,6.914 0.637,-7.465 0.637,10.649 0.637,-10.922 0.636,0.25 0.637,1.789 0.637,-3.93 0.637,11.922 0.636,-10.574 0.637,3.625 0.637,-15.164 0.64,10 0.637,9.933 0.637,2.906 0.636,-0.851 0.637,-1.863 0.637,1.625 0.637,-0.903 0.636,-0.961 0.637,1.203 0.637,1.899 0.636,-0.57 0.637,-2.274 0.637,1.539 0.637,0.641 0.636,-0.492 0.637,-1.914 0.637,3.281 0.637,-2.086 0.636,-0.871 0.637,1.445 0.637,1.02 0.636,-1.336 0.637,-1.012 0.637,1.109 0.637,1.664 0.636,-3.355 0.637,2.406 0.637,1.582 0.636,-2.441 0.637,-0.918 0.637,1.961 0.637,-0.559 0.636,-2.386 0.637,3.093 0.637,1.348 0.636,-2.348 0.637,-0.379 0.641,0.36 0.637,1.117 0.636,-2.348 0.637,1.153 0.637,3.035 0.636,-3.766 0.637,2.309 0.637,0.476 0.637,-1.863 0.636,-0.52 0.637,1.508 0.637,0.594 0.636,-1.883 0.637,0.156 0.637,1.872 0.637,-2.696 0.636,-0.164 0.637,2.028 0.637,1.378 0.636,-1.605 0.637,-2.016 0.637,2.063 0.637,-1.727 0.636,-0.406 0.637,4.066 0.637,-3.238 0.636,-0.496 0.637,19.617 0.637,15.074 0.637,-9.824 0.636,-4.101 0.637,18.484 0.637,-15.418 0.637,-0.484 0.636,9.519 0.637,-11.929 0.637,-0.063 0.64,11.078 0.637,-10.644 0.637,-2.575 0.636,3.567 0.637,13.656 0.637,-14.769 0.637,-2.633 0.636,18.367 0.637,-10.133 0.637,0.09 0.636,17.074 0.637,-23.051 0.637,2.622 0.637,7.433 0.636,2.746 0.637,-9.535 0.637,-2.41 0.637,17.562 0.636,-14.531 0.637,-1.441 0.637,10.355 0.636,-12.824 0.637,-0.375 0.637,13.187 0.637,-12.628 0.636,-1.903 0.637,3.328 0.637,13.395 0.636,-14.695 0.637,-1.055 0.637,18.168 0.637,-12.613 0.636,1.32 0.637,18.414 0.637,-25.258 0.636,3.235 0.637,6.609 0.641,2.93 0.637,-7.301 0.636,-4.004 0.637,16.812 0.637,-15.5 0.636,0.149 0.637,10.89 0.637,-12.429 0.637,-1.418 0.636,12.715 0.637,-11.356 0.637,-3 0.636,3.555 0.637,14.91 0.637,-16.082 0.637,-2.746 0.636,20.168 0.637,-33.797 0.637,-2.168 0.636,0.914 0.637,5.524 0.637,-4.024 0.637,0.016 0.636,2.777 0.637,0.977 0.637,-0.977 0.636,-1.113 0.637,-2.5 0.637,-0.977 0.637,8.59 0.636,-5.168 0.637,-4.32 0.637,2.414 0.637,0.344 0.636,0.003 0.637,3.864 0.637,-5.555 0.64,-0.523 0.637,7.761 0.637,-3.195 0.636,-1.512 0.637,1.981 0.637,0.621 0.637,-1.727 0.636,1.125 0.637,-4.371 0.637,2.707 0.636,7.211 0.637,-6.39 0.637,-4.278 0.637,3.184 0.636,1.203 0.637,-2.723 0.637,3.828 0.637,-6.566 0.636,3.258 0.637,8.191 0.637,-6.172 0.636,-5.504 0.637,5.231 0.637,0.875 0.637,2.73 0.636,-2.711 0.637,-3.003 0.637,-0.04 0.636,8.926 0.637,-5.695 0.637,-5.137 0.637,3.121 0.636,3.457 0.637,-4.511 0.637,1.879 0.636,-2.645 0.637,1.09 0.641,7.906 0.637,-4.379 0.636,-5.219 0.637,-1.906 0.637,5.879 0.636,-0.453 0.637,1.695 0.637,-3.968 0.637,-2.551 0.636,11.324 0.637,-5.223 0.637,-4.929 0.636,3.566 0.637,2.285 0.637,-2.699 0.637,1.602 0.636,-2.856 0.637,-1.039 0.637,8.949 0.636,-9.187 0.637,0.547 0.637,4.129 0.637,-0.165 0.636,0.274 0.637,-66.445 0.637,-74.313 0.636,0.234 0.637,-0.035 0.637,0.172 0.637,0.352 0.636,-0.407 0.637,-0.234 0.637,0.152 0.637,-0.218 0.636,0.082 0.637,0 0.641,0.168 0.636,0.441 0.637,-0.59 0.637,0.239 0.636,-0.325 0.637,-0.047 0.637,-0.132 0.637,-1.43 0.636,1.609 0.637,0.692 0.637,-0.657 0.636,0.016 0.637,-0.133 0.637,0.367 0.637,-0.292 0.636,-0.208 0.637,0.067 0.637,0.266 0.637,0.488 0.636,-0.688 0.637,0.215 0.637,-0.133 0.636,-1.277 0.637,1.246 0.637,0.492 0.637,-0.375 0.636,-0.051 0.637,0.692 0.637,-0.508 0.636,-0.184 0.637,0.266 0.637,-0.183 0.637,-0.098 0.636,-0.102 0.637,0.235 0.637,0.156 0.636,0.504 0.641,-0.762 0.637,0.035 0.637,-0.019 0.636,0.066 0.637,-0.348 0.637,0.215 0.636,-0.113 0.637,-0.23 0.637,-0.641 0.637,0.371 0.636,0.172 0.637,1.101 0.637,-1.96 0.636,1.433 0.637,0.457 0.637,-0.59 0.637,-0.097 0.636,-0.035 0.637,-0.047 0.637,0.57 0.636,-0.371 0.637,0.015 0.637,-0.148 0.637,0.945 0.636,-0.73 0.637,-0.082 0.637,0.031 0.636,-0.082 0.637,0.117 0.637,0.098 0.637,-1.289 0.636,1.515 0.637,-0.125 0.637,-0.199 0.637,0.032 0.636,-0.051 0.637,-0.032 0.641,-0.074 0.636,0.157 0.637,0.593 0.637,-0.508 0.636,0.122 0.637,-0.29 0.637,-0.082 0.637,-0.25 0.636,0.481 0.637,-0.133 0.637,-0.051 0.636,0.692 0.637,-0.707 0.637,0.066 0.637,0.207 0.636,-0.437 0.637,-0.149 0.637,0.262 0.637,0.035 0.636,0.066 0.637,0.446 0.637,-0.278 0.636,-0.203 0.637,-0.015 0.637,0.148 0.637,0.258 0.636,-2.125 0.637,3.977 0.637,-3.063 0.636,1.039 0.637,-0.035 0.637,-0.016 0.637,-0.215 0.636,0.067 0.637,-0.035 0.637,0.199 0.636,0.105 0.641,0.575 0.637,-0.946 0.637,0.383 0.636,-0.266 0.637,-0.199 0.637,-0.031 0.636,0.246 0.637,-0.016 0.637,0.641 0.637,-0.336 0.636,-0.273 0.637,-0.067 0.637,-0.047 0.636,-0.085 0.637,-0.145 0.637,0.164 0.637,0.113 0.636,0.692 0.637,-0.606 0.637,0.047 0.636,0.242 0.637,-0.39 0.637,0.082 0.637,0 0.636,-0.067 0.637,0.102 0.637,0.711 0.636,-0.61 0.637,0.047 0.637,-0.215 0.637,0.149 0.636,0.141 0.637,-0.325 0.637,0.067 0.637,-0.016 0.636,0.762 0.637,-0.793 0.641,0.113 0.636,0 0.637,-0.312 0.637,0.23 0.636,-0.18 0.637,0.504 0.637,-0.308 0.637,0.472 0.636,-0.437 0.637,-0.117 0.637,-0.051 0.636,-0.113 0.637,-0.051 0.637,0.082 0.637,0.234 0.636,0.254 0.637,0.387 0.637,-0.824 0.637,0.367 0.636,-0.27 0.637,0 0.637,0.118 0.636,-0.098 0.637,-0.02 0.637,0.899 0.637,-0.766 0.636,0.227 0.637,-0.141 0.637,-1.527 0.636,1.277 0.637,-0.035 0.637,0.117 0.637,-0.527 0.636,-2.469 0.637,2.508 0.637,0.062 0.636,-0.492 0.641,0.77 0.637,0.484 0.637,-2 0.636,1.121 0.637,0.981 0.637,-0.356 0.636,0.578 0.637,-0.676 0.637,0.286 0.637,-0.301 0.636,0.32 0.637,-0.488 0.637,0.051 0.636,0.097 0.637,-0.047 0.637,0.825 0.637,-0.711 0.636,-0.149 0.637,0.067 0.637,-0.082 0.636,0.05 0.637,0.188 0.637,-0.207 0.637,0.101 0.636,0.625 0.637,-0.824 0.637,0.25 0.636,-0.066 0.637,0.113 0.637,-0.015 0.637,-0.051 0.636,0.402 0.637,-0.492 0.637,0.613 0.637,-0.371 0.636,-0.035 0.641,0.035 0.637,-0.035 0.636,-0.117 0.637,-0.047 0.637,-0.02 0.636,-2.84 0.637,2.051 0.637,-0.035 0.637,-1.867 0.636,2.66 0.637,0.895 0.637,-0.778 0.636,-0.035 0.637,0.051 0.637,-0.117 0.637,-0.051 0.636,0.219 0.637,-0.16 0.637,0.109 0.637,0.609 0.636,-0.558 0.637,-0.2 0.637,0 0.636,-0.101 0.637,0.117 0.637,-0.082 0.637,0.066 0.636,0.356 0.637,0.332 0.637,-0.523 0.636,-0.266 0.637,0.316 0.637,-1.414 0.637,1.016 0.636,0.316 0.637,0.082 0.637,0.473 0.64,-0.539 0.637,0.273 0.637,-0.273 0.637,-0.016 0.636,0.149 0.637,-0.149 0.637,0.098 0.636,-0.184 0.637,0.692 0.637,-0.574 0.637,0 0.636,-0.016 0.637,0.207 0.637,-0.223 0.636,-0.066 0.637,-0.051 0.637,-0.133 0.637,0.77 0.636,-0.473 1.274,-0.164 0.636,-0.051 0.637,0.383 0.637,-0.375 0.637,-0.141 0.636,0.102 0.637,0.875" /></g><path
       inkscape:connector-curvature="0"
       id="path33133"
       style="fill:none;stroke:#333333;stroke-width:1.06697798;stroke-linecap:butt;stroke-linejoin:round;stroke-miterlimit:10;stroke-dasharray:none;stroke-opacity:1"
       d="m 44.808026,160.75333 2.739,0" /><path
       inkscape:connector-curvature="0"
       id="path33135"
       style="fill:none;stroke:#333333;stroke-width:1.06697798;stroke-linecap:butt;stroke-linejoin:round;stroke-miterlimit:10;stroke-dasharray:none;stroke-opacity:1"
       d="m 44.45825,178.49079 2.739,0" /><path
       inkscape:connector-curvature="0"
       id="path33137"
       style="fill:none;stroke:#333333;stroke-width:1.06697798;stroke-linecap:butt;stroke-linejoin:round;stroke-miterlimit:10;stroke-dasharray:none;stroke-opacity:1"
       d="m 44.296882,196.12892 2.739,0" /><path
       inkscape:connector-curvature="0"
       id="path33139"
       style="fill:none;stroke:#333333;stroke-width:1.06697798;stroke-linecap:butt;stroke-linejoin:round;stroke-miterlimit:10;stroke-dasharray:none;stroke-opacity:1"
       d="m 44.311803,213.70834 2.739,0" /><path
       inkscape:connector-curvature="0"
       id="path33157"
       style="fill:#f2f2f2;fill-opacity:1;fill-rule:nonzero;stroke:#ffffff;stroke-width:1.06697798;stroke-linecap:round;stroke-linejoin:round;stroke-miterlimit:10;stroke-dasharray:none;stroke-opacity:1"
       d="m 242.66571,240.11411 17.281,0 0,-17.281 -17.281,0 0,17.281 z" /><path
       inkscape:connector-curvature="0"
       id="path33159"
       style="fill:none;stroke:#d7191c;stroke-width:2.13395691;stroke-linecap:butt;stroke-linejoin:round;stroke-miterlimit:10;stroke-dasharray:none;stroke-opacity:1"
       d="m 244.39171,231.47311 13.824,0" /><path
       inkscape:connector-curvature="0"
       id="path33161"
       style="fill:#f2f2f2;fill-opacity:1;fill-rule:nonzero;stroke:#ffffff;stroke-width:1.06697798;stroke-linecap:round;stroke-linejoin:round;stroke-miterlimit:10;stroke-dasharray:none;stroke-opacity:1"
       d="m 342.26271,240.11411 17.281,0 0,-17.281 -17.281,0 0,17.281 z" /><path
       inkscape:connector-curvature="0"
       id="path33163"
       style="fill:none;stroke:#99d594;stroke-width:2.13395691;stroke-linecap:butt;stroke-linejoin:round;stroke-miterlimit:10;stroke-dasharray:none;stroke-opacity:1"
       d="m 343.99371,231.47311 13.82,0" /><text
       xml:space="preserve"
       style="font-style:normal;font-weight:normal;font-size:15px;line-height:125%;font-family:sans-serif;letter-spacing:-1.60000002px;word-spacing:0px;fill:#000000;fill-opacity:1;stroke:none;stroke-width:1px;stroke-linecap:butt;stroke-linejoin:miter;stroke-opacity:1"
       x="29.356823"
       y="-208.98969"
       id="text33751"
       sodipodi:linespacing="125%"
       transform="scale(1,-1)"><tspan
         sodipodi:role="line"
         id="tspan33753"
         x="29.356823"
         y="-208.98969"
         style="font-style:normal;font-variant:normal;font-weight:normal;font-stretch:normal;font-family:Arial;-inkscape-font-specification:Arial">16</tspan></text>
<text
       xml:space="preserve"
       style="font-style:normal;font-weight:normal;font-size:15px;line-height:125%;font-family:sans-serif;letter-spacing:-1.60000002px;word-spacing:0px;fill:#000000;fill-opacity:1;stroke:none;stroke-width:1px;stroke-linecap:butt;stroke-linejoin:miter;stroke-opacity:1"
       x="29.113491"
       y="-192.41327"
       id="text33751-9"
       sodipodi:linespacing="125%"
       transform="scale(1,-1)"><tspan
         sodipodi:role="line"
         id="tspan33753-9"
         x="29.113491"
         y="-192.41327"
         style="font-style:normal;font-variant:normal;font-weight:normal;font-stretch:normal;font-family:Arial;-inkscape-font-specification:Arial">12</tspan></text>
<text
       xml:space="preserve"
       style="font-style:normal;font-weight:normal;font-size:15px;line-height:125%;font-family:sans-serif;letter-spacing:-1.60000002px;word-spacing:0px;fill:#000000;fill-opacity:1;stroke:none;stroke-width:1px;stroke-linecap:butt;stroke-linejoin:miter;stroke-opacity:1"
       x="36.27623"
       y="-173.96448"
       id="text33751-1"
       sodipodi:linespacing="125%"
       transform="scale(1,-1)"><tspan
         sodipodi:role="line"
         id="tspan33753-5"
         x="36.27623"
         y="-173.96448"
         style="font-style:normal;font-variant:normal;font-weight:normal;font-stretch:normal;font-family:Arial;-inkscape-font-specification:Arial">8</tspan></text>
<text
       xml:space="preserve"
       style="font-style:normal;font-weight:normal;font-size:15px;line-height:125%;font-family:sans-serif;letter-spacing:-1.60000002px;word-spacing:0px;fill:#000000;fill-opacity:1;stroke:none;stroke-width:1px;stroke-linecap:butt;stroke-linejoin:miter;stroke-opacity:1"
       x="36.823219"
       y="-156.04788"
       id="text33751-0"
       sodipodi:linespacing="125%"
       transform="scale(1,-1)"><tspan
         sodipodi:role="line"
         id="tspan33753-0"
         x="36.823219"
         y="-156.04788"
         style="font-style:normal;font-variant:normal;font-weight:normal;font-stretch:normal;font-family:Arial;-inkscape-font-specification:Arial">4</tspan></text>
<text
       xml:space="preserve"
       style="font-style:normal;font-weight:normal;font-size:15px;line-height:125%;font-family:sans-serif;letter-spacing:-1.60000002px;word-spacing:0px;fill:#000000;fill-opacity:1;stroke:none;stroke-width:1px;stroke-linecap:butt;stroke-linejoin:miter;stroke-opacity:1"
       x="175.05705"
       y="25.271143"
       id="text4772"
       sodipodi:linespacing="125%"
       transform="matrix(0,1,1,0,0,0)"><tspan
         sodipodi:role="line"
         id="tspan4774"
         x="175.05705"
         y="25.271143"
         style="font-style:normal;font-variant:normal;font-weight:bold;font-stretch:normal;font-family:Arial;-inkscape-font-specification:Arial;letter-spacing:0px">IPC</tspan></text>
<text
       xml:space="preserve"
       style="font-style:normal;font-weight:normal;font-size:15px;line-height:125%;font-family:sans-serif;letter-spacing:0px;word-spacing:0px;fill:#000000;fill-opacity:1;stroke:none;stroke-width:1px;stroke-linecap:butt;stroke-linejoin:miter;stroke-opacity:1"
       x="318.5687"
       y="-131.71567"
       id="text4776"
       sodipodi:linespacing="125%"
       transform="scale(1,-1)"><tspan
         sodipodi:role="line"
         id="tspan4778"
         x="318.5687"
         y="-131.71567"
         style="font-style:normal;font-variant:normal;font-weight:normal;font-stretch:normal;font-size:12px;font-family:Arial;-inkscape-font-specification:Arial">Time Tick</tspan></text>
<text
       xml:space="preserve"
       style="font-style:normal;font-weight:normal;font-size:15px;line-height:125%;font-family:sans-serif;letter-spacing:-1.60000002px;word-spacing:0px;fill:#000000;fill-opacity:1;stroke:none;stroke-width:1px;stroke-linecap:butt;stroke-linejoin:miter;stroke-opacity:1"
       x="262.49252"
       y="-227.68973"
       id="text4784"
       sodipodi:linespacing="125%"
       transform="scale(1,-1)"><tspan
         sodipodi:role="line"
         id="tspan4786"
         x="262.49252"
         y="-227.68973"
         style="font-style:normal;font-variant:normal;font-weight:normal;font-stretch:normal;font-size:12px;font-family:Arial;-inkscape-font-specification:Arial;letter-spacing:0px">Baseline                 Optimized</tspan></text>
</g></svg>