<?xml version="1.0" encoding="UTF-8" standalone="no"?>
<!-- Created with Inkscape (http://www.inkscape.org/) -->

<svg
   xmlns:dc="http://purl.org/dc/elements/1.1/"
   xmlns:cc="http://creativecommons.org/ns#"
   xmlns:rdf="http://www.w3.org/1999/02/22-rdf-syntax-ns#"
   xmlns:svg="http://www.w3.org/2000/svg"
   xmlns="http://www.w3.org/2000/svg"
   xmlns:sodipodi="http://sodipodi.sourceforge.net/DTD/sodipodi-0.dtd"
   xmlns:inkscape="http://www.inkscape.org/namespaces/inkscape"
   id="svg32305"
   version="1.1"
   inkscape:version="0.91 r13725"
   xml:space="preserve"
   width="875.75739"
   height="141.72339"
   viewBox="0 0 875.75738 141.72338"
   sodipodi:docname="disp_opt_4_16_3.svg"><metadata
     id="metadata32311"><rdf:RDF><cc:Work
         rdf:about=""><dc:format>image/svg+xml</dc:format><dc:type
           rdf:resource="http://purl.org/dc/dcmitype/StillImage" /><dc:title></dc:title></cc:Work></rdf:RDF></metadata><defs
     id="defs32309"><clipPath
       clipPathUnits="userSpaceOnUse"
       id="clipPath32329"><path
         d="m 46.891,303.563 668.629,0 0,-276.547 -668.629,0 0,276.547 z"
         id="path32331"
         inkscape:connector-curvature="0" /></clipPath></defs><sodipodi:namedview
     pagecolor="#ffffff"
     bordercolor="#666666"
     borderopacity="1"
     objecttolerance="10"
     gridtolerance="10"
     guidetolerance="10"
     inkscape:pageopacity="0"
     inkscape:pageshadow="2"
     inkscape:window-width="2560"
     inkscape:window-height="1387"
     id="namedview32307"
     showgrid="false"
     fit-margin-top="0"
     fit-margin-left="0"
     fit-margin-right="0"
     fit-margin-bottom="0"
     inkscape:zoom="1"
     inkscape:cx="200.92066"
     inkscape:cy="-120.20193"
     inkscape:window-x="-8"
     inkscape:window-y="-8"
     inkscape:window-maximized="1"
     inkscape:current-layer="g32313" /><g
     id="g32313"
     inkscape:groupmode="layer"
     inkscape:label="disp_opt_4_16"
     transform="matrix(1.25,0,0,-1.25,-17.392612,358.98186)"><g
       id="g32325"
       transform="matrix(1,0,0,0.2835089,0,180.21575)"><g
         id="g32327"
         clip-path="url(#clipPath32329)"><path
           d="m 46.891,303.563 667.629,0 0,-275.547 -667.629,0 0,275.547 z"
           style="fill:#ebebeb;fill-opacity:1;fill-rule:nonzero;stroke:none"
           id="path32333"
           inkscape:connector-curvature="0" /><path
           d="m 107.047,28.016 0,275.547"
           style="fill:none;stroke:#ffffff;stroke-width:0.53348899;stroke-linecap:butt;stroke-linejoin:round;stroke-miterlimit:10;stroke-dasharray:none;stroke-opacity:1"
           id="path32335"
           inkscape:connector-curvature="0" /><path
           d="m 275.637,28.016 0,275.547"
           style="fill:none;stroke:#ffffff;stroke-width:0.53348899;stroke-linecap:butt;stroke-linejoin:round;stroke-miterlimit:10;stroke-dasharray:none;stroke-opacity:1"
           id="path32337"
           inkscape:connector-curvature="0" /><path
           d="m 444.23,28.016 0,275.547"
           style="fill:none;stroke:#ffffff;stroke-width:0.53348899;stroke-linecap:butt;stroke-linejoin:round;stroke-miterlimit:10;stroke-dasharray:none;stroke-opacity:1"
           id="path32339"
           inkscape:connector-curvature="0" /><path
           d="m 612.824,28.016 0,275.547"
           style="fill:none;stroke:#ffffff;stroke-width:0.53348899;stroke-linecap:butt;stroke-linejoin:round;stroke-miterlimit:10;stroke-dasharray:none;stroke-opacity:1"
           id="path32341"
           inkscape:connector-curvature="0" /><path
           d="m 46.891,76.848 667.629,0"
           style="fill:none;stroke:#ffffff;stroke-width:1.06697798;stroke-linecap:butt;stroke-linejoin:round;stroke-miterlimit:10;stroke-dasharray:none;stroke-opacity:1"
           id="path32343"
           inkscape:connector-curvature="0" /><path
           d="m 46.891,144.578 667.629,0"
           style="fill:none;stroke:#ffffff;stroke-width:1.06697798;stroke-linecap:butt;stroke-linejoin:round;stroke-miterlimit:10;stroke-dasharray:none;stroke-opacity:1"
           id="path32345"
           inkscape:connector-curvature="0" /><path
           d="m 46.891,212.313 667.629,0"
           style="fill:none;stroke:#ffffff;stroke-width:1.06697798;stroke-linecap:butt;stroke-linejoin:round;stroke-miterlimit:10;stroke-dasharray:none;stroke-opacity:1"
           id="path32347"
           inkscape:connector-curvature="0" /><path
           d="m 46.891,280.043 667.629,0"
           style="fill:none;stroke:#ffffff;stroke-width:1.06697798;stroke-linecap:butt;stroke-linejoin:round;stroke-miterlimit:10;stroke-dasharray:none;stroke-opacity:1"
           id="path32349"
           inkscape:connector-curvature="0" /><path
           d="m 191.344,28.016 0,275.547"
           style="fill:none;stroke:#ffffff;stroke-width:1.06697798;stroke-linecap:butt;stroke-linejoin:round;stroke-miterlimit:10;stroke-dasharray:none;stroke-opacity:1"
           id="path32351"
           inkscape:connector-curvature="0" /><path
           d="m 359.934,28.016 0,275.547"
           style="fill:none;stroke:#ffffff;stroke-width:1.06697798;stroke-linecap:butt;stroke-linejoin:round;stroke-miterlimit:10;stroke-dasharray:none;stroke-opacity:1"
           id="path32353"
           inkscape:connector-curvature="0" /><path
           d="m 528.527,28.016 0,275.547"
           style="fill:none;stroke:#ffffff;stroke-width:1.06697798;stroke-linecap:butt;stroke-linejoin:round;stroke-miterlimit:10;stroke-dasharray:none;stroke-opacity:1"
           id="path32355"
           inkscape:connector-curvature="0" /><path
           d="m 697.121,28.016 0,275.547"
           style="fill:none;stroke:#ffffff;stroke-width:1.06697798;stroke-linecap:butt;stroke-linejoin:round;stroke-miterlimit:10;stroke-dasharray:none;stroke-opacity:1"
           id="path32357"
           inkscape:connector-curvature="0" /><path
           d="m 77.238,244.246 0.27,-4.785 0.269,3.863 0.27,0.125 0.269,-7.64 0.27,11.675 0.269,2.219 0.27,-15.816 0.27,2.566 0.269,9.973 0.274,-1.696 0.269,-0.296 0.27,-1.817 0.269,-4.254 0.27,7.594 0.269,2.914 0.27,-12.137 0.269,-0.507 0.27,9.543 0.269,-2.172 0.27,-1.66 0.269,0.519 0.27,-5.75 0.269,7.199 0.27,-1.136 0.269,-3.875 0.27,-4.813 0.27,14.77 0.273,-7.895 0.27,4.316 0.269,-1.839 0.27,-10.211 0.269,12.785 0.27,-2.996 0.269,-4.696 0.27,0.375 0.269,8.59 0.27,-3.988 0.269,-2.004 0.27,3.676 0.269,-9.59 0.27,8.648 0.269,-0.281 0.27,-5.258 0.269,-5.757 0.27,10.273 0.273,-2.977 0.27,-0.46 0.27,1.558 0.269,-2.594 0.27,5.481 0.269,5.633 0.27,-17.024 0.269,3.629 0.27,5.52 0.269,2.543 0.27,0 0.269,-0.602 0.27,-5.82 0.269,-72.949 0.27,-98.274 0.269,-0.234 0.27,0.59 0.269,-0.633 0.274,0.894 0.269,-6.929 0.27,2.082 0.27,2.054 0.269,-0.902 0.27,-0.043 0.269,0.148 0.27,0.973 0.269,-1.098 0.27,0.539 0.269,-0.328 0.27,-0.343 0.269,3.703 0.27,0.144 0.269,-1.996 0.27,1.926 0.269,-3.961 0.27,0.996 0.273,-3.5 0.27,-0.844 0.269,4.137 0.27,-1.652 0.27,0.043 0.269,6.304 0.27,-1.574 0.269,-4.043 0.27,0.852 0.269,-0.149 0.27,0 0.269,-0.043 0.27,0.219 0.269,-0.387 0.27,0.922 0.269,-0.797 0.27,-0.019 0.269,0.148 0.274,-0.164 0.269,0.598 0.27,-0.027 0.269,-2.18 0.27,1.644 0.27,-0.886 0.269,-0.996 0.27,1.628 0.269,-0.472 0.27,0.453 0.269,0.125 0.27,0.129 0.269,-0.067 0.27,-0.062 0.269,-0.043 0.27,0.508 0.269,-0.473 0.27,0.777 0.273,-0.937 0.27,0.023 0.269,0.293 0.27,-0.191 0.269,0.234 0.27,-0.168 0.27,0.149 0.269,-1.828 0.27,0.707 0.269,-1.231 0.27,1.867 0.269,1.411 0.27,-0.926 0.269,-0.043 0.27,-0.957 0.269,4.117 0.27,-1.504 0.273,1.481 0.27,0.285 0.269,0.316 0.27,0.461 0.269,-0.609 0.27,-0.215 0.269,-1.754 0.27,-1.961 0.27,0.273 0.269,0.282 0.27,4.207 0.269,-2.992 0.27,-1.082 0.269,-0.223 0.27,-0.149 0.269,-0.082 0.27,0.063 0.269,0 0.274,-0.231 0.269,1.047 0.27,-0.902 0.269,0.254 0.27,-0.211 0.269,0.562 0.27,-0.711 0.269,0.235 0.27,-0.465 0.27,0.254 0.269,0.617 0.27,-0.238 0.269,-0.254 0.27,0.148 0.269,-0.316 0.27,0.187 0.269,0.286 0.27,-0.176 0.273,-0.383 0.27,1.551 0.269,-1.211 0.27,-2.422 0.269,2.273 0.27,0.149 0.269,-1.516 0.27,2.574 0.269,-0.753 0.27,-0.157 0.27,-2.379 0.269,1.274 0.27,2.035 0.269,-1.121 0.27,-0.129 0.269,0.902 0.27,-0.476 0.269,-0.383 0.274,0.383 0.269,0.051 0.27,-0.262 0.269,-0.36 0.27,0.317 0.269,-0.192 0.27,0.856 0.269,-0.75 0.27,0.168 0.269,-0.231 0.27,0.082 0.27,-0.105 0.269,0.219 0.27,-0.321 0.269,0.317 0.27,0.578 0.269,-0.645 0.27,-0.125 0.273,0.231 0.27,-0.231 0.269,0.192 0.27,0.062 0.269,0.25 0.27,-0.195 0.269,0.332 0.27,-0.41 0.269,0.023 0.27,0.129 0.269,-0.191 0.27,0.168 0.27,-2.18 0.269,0.828 0.27,2.778 0.269,-1.204 0.27,-0.433 0.269,-0.067 0.274,0.344 0.269,-0.258 0.27,-0.293 0.269,0.102 0.27,0 0.269,0.922 0.27,-0.688 0.269,0 0.27,0.157 0.269,-0.137 0.27,-0.399 0.269,0.082 0.27,-0.039 0.27,0.082 0.269,1.008 0.27,-0.883 0.269,-0.207 0.27,0.274 0.273,0.168 0.27,0.031 0.269,-0.305 0.27,0.317 0.269,-0.235 0.27,0.602 0.269,-0.559 0.27,0.172 0.269,-0.066 0.27,0.129 0.269,-0.34 0.27,-0.906 0.269,0.949 0.27,0.621 0.27,-0.684 0.269,0.231 0.27,-0.106 0.269,-0.062 0.274,0.211 0.539,-0.297 0.269,0.859 0.27,-0.828 0.269,0.117 0.27,-0.019 0.269,0.105 0.27,-0.191 0.269,0.019 0.27,-0.293 0.269,0.254 0.27,0.446 0.269,-0.489 0.27,0.383 0.27,-0.015 0.269,-0.368 0.27,0.043 0.273,-0.023 0.27,0.234 0.269,-0.297 0.27,1.118 0.269,-1.012 0.27,0.129 0.269,0.211 0.27,-0.055 0.269,-0.074 0.27,0.066 0.269,0.086 0.27,-0.277 0.269,0.578 0.27,-0.707 0.269,0.297 0.27,-0.086 0.27,0.023 0.269,-3.277 0.273,0.84 0.27,-0.363 0.27,5 0.269,-1.704 0.27,-0.539 0.269,-0.105 0.27,1.012 0.269,-0.926 0.27,-0.11 0.269,-0.062 0.27,0.297 0.269,0.453 0.27,2.445 0.269,-3.886 0.27,0.238 0.269,1.222 0.27,-0.535 0.27,-0.172 0.273,0.067 0.269,-0.297 0.27,0.273 0.27,0.051 0.269,-0.387 0.27,-0.441 0.269,0.758 0.27,-1.035 0.269,0.304 0.27,1.414 0.269,-0.875 0.27,0.192 0.269,-0.043 0.27,0.926 0.269,-0.45 0.27,-0.07 0.269,-0.406 0.27,0.086 0.273,-0.024 0.27,0.086 0.269,-0.043 0.27,-0.019 0.27,1.035 0.269,-0.93 0.27,-0.023 0.269,0.242 0.27,-0.367 0.269,-0.043 0.27,-0.086 0.269,0.32 0.27,-0.234 0.269,0.879 0.27,-0.774 0.269,-0.336 0.27,0.379 0.269,0.243 0.274,-0.262 0.269,-0.297 0.27,0.297 0.269,-0.383 0.27,1.113 0.27,-1.07 0.269,0.23 0.27,-0.168 0.269,0.278 0.27,-0.36 0.269,0.707 0.27,-0.519 0.269,0.129 0.27,0.859 0.269,-0.582 0.27,-0.383 0.269,0.149 0.27,-0.067 0.273,0.086 0.27,-0.086 0.269,0.215 0.27,-0.035 0.269,0.988 0.27,-1.23 0.27,0.297 0.269,-0.34 0.27,-25.008 0.269,-0.398 5.125,0 0.27,69.472 0.269,45.809 0.27,-5.106 0.269,-1.277 0.27,0.313 0.269,-0.453 0.274,7.55 0.269,1.629 0.27,-2.176 0.269,-6.945 0.27,4.91 0.269,4.864 0.27,-4.379 0.269,-3.352 0.27,1.75 0.27,-4.859 0.269,3.14 0.27,7.586 0.269,-6.574 0.27,4.215 0.269,-1.418 0.27,-2.734 0.269,11.335 0.27,-12.812 0.273,1.379 0.27,-0.184 0.269,0.617 0.27,7.516 0.269,-6.496 0.27,1.637 0.269,-8.543 0.27,4.785 0.269,-7.254 0.27,4.91 0.27,2.899 0.269,-1.61 0.27,3.985 0.269,-0.61 0.27,-3.738 0.269,1.172 0.27,22.207 0.269,51.859 0.274,4.246 0.269,0.012 0.27,-7.18 0.269,10.34 0.27,-5.504 0.269,0.387 0.27,12.102 0.269,-15.942 0.27,11.68 0.269,-4.156 0.27,-4.875 0.27,9.605 0.269,-6.086 0.27,-4.805 0.269,-0.3 0.27,9.918 0.269,-8.278 0.27,10.93 0.273,-11.465 0.27,4.668 0.269,10.52 0.27,-20.563 0.269,25.891 0.27,-13.379 0.269,-1.867 0.27,3.429 0.269,-1.996 0.27,0.934 0.269,-14.988 0.27,12.574 0.27,-9.848 0.269,-10.574 0.27,31.406 0.269,-13.933 0.27,13.351 0.269,-11.703 0.274,-9.984 0.269,17.449 0.27,-4.52 0.269,7.223 0.27,-1.551 0.269,-5.754 0.27,-34.629 0.269,38.067 0.27,-3.903 0.269,4.411 0.27,0.3 0.269,-2.148 0.27,0.629 0.27,2.058 0.269,-1.574 0.27,-2.16 0.269,4.289 0.27,-0.113 0.273,-3.91 0.27,-0.098 0.269,3.516 0.27,-3.84 0.269,0.277 0.27,3.11 0.269,-0.211 0.27,0.054 0.269,-1.422 0.27,2.082 0.269,-4.089 0.27,1.789 0.269,1.515 0.27,-0.261 0.27,-0.914 0.269,0.203 0.27,0.004 0.269,0.238 0.274,-2.016 0.269,2.793 0.27,0.813 0.269,-1.77 0.27,-1.144 0.269,3.582 0.27,-2.399 0.269,-1.004 0.27,1.332 0.269,0.789 0.27,-3.171 0.269,1.933 0.27,2.527 0.269,-2.871 0.27,0.547 0.27,1.266 0.269,1.117 0.27,-2.504 0.273,-1.449 0.27,2.301 0.269,0.164 0.27,-0.977 0.269,-0.34 0.27,1.774 0.269,-2.856 0.27,4.508 0.269,-3.328 0.27,0.023 0.269,-0.488 0.27,2.746 0.269,-1.859 0.27,-0.664 0.269,0.324 0.27,0.977 0.27,12.113 0.269,17.113 0.274,0.735 0.269,20.644 0.27,-20.887 0.269,0.508 0.27,22.68 0.269,-18.938 0.27,3.356 0.269,0.672 0.27,6.113 0.269,-12.566 0.27,1.164 0.269,26.136 0.27,-28.136 0.269,2.992 0.27,19.5 0.269,-22.926 0.27,1.457 0.27,7.152 0.273,4.004 0.27,-12.531 0.269,-1.766 0.27,19.036 0.269,-17.563 0.27,-0.426 0.269,21.067 0.27,-20.168 0.269,-0.719 0.27,22.797 0.269,-17.203 0.27,0.961 0.269,2.148 0.27,4.953 0.269,-9.676 0.27,-0.414 0.269,24.555 0.27,-23.199 0.273,-0.953 0.27,19.316 0.27,-21.336 0.269,-1.519 0.27,7.058 0.269,4.504 0.27,-11.121 0.269,-1.445 0.27,19.226 0.269,-16.246 0.27,-4.289 0.269,22.481 0.27,-20.696 0.269,0.18 0.27,22.133 0.269,-18.82 0.27,2.21 0.269,3.008 0.274,6.602 0.269,-13.738 0.27,0.328 0.27,26.922 0.269,-24.993 0.27,0.743 0.269,18.226 0.27,-21.418 0.269,-8.676 0.27,-12.851 0.269,-9.176 0.27,2.672 0.269,-1.195 0.27,5.461 0.269,1.742 0.27,-2.996 0.269,-7.723 0.274,8.668 0.269,0.68 0.27,-5.586 0.269,-6.235 0.27,6.137 0.27,4.094 0.269,3.035 0.27,-3.906 0.269,-5.219 0.27,7.269 0.269,-0.07 0.27,-2.996 0.269,-4 0.27,5.918 0.269,-0.613 0.27,1.636 0.269,3.036 0.27,-10.164 0.273,13.296 0.27,-4.812 0.269,-3.981 0.27,-1.109 0.269,3.945 0.27,1.844 0.27,-2.758 0.269,1.118 0.27,-6.207 0.269,11.003 0.27,-3.164 0.269,-3.902 0.27,-1.398 0.269,4.207 0.27,1.078 0.269,-3.727 0.27,-0.879 0.269,-1.722 0.274,6.117 0.269,4.422 0.27,-9.504 0.269,0.258 0.27,2.148 0.269,1.992 0.27,-0.355 0.27,-2.18 0.269,-4.125 0.27,9.695 0.269,-1.379 0.27,-3.109 0.269,-2.93 0.27,4.098 0.269,3.738 0.27,0.946 0.269,-11.094 0.27,-4.442 0.273,11.836 0.27,-1.648 0.269,-0.242 0.27,-2.61 0.269,6.747 0.27,0.214 0.269,-0.023 0.27,-4.926 0.27,-4.539 0.269,7.172 0.27,3.152 0.269,-8.832 0.27,2.918 0.269,-1.121 0.27,3.223 0.269,-1.016 0.27,-2.433 0.269,-3.864 0.274,-40.699 0.269,-127.996 0.27,0.527 0.269,-0.836 0.27,-0.14 0.269,-1.703 0.27,-1.578 0.269,0.23 0.27,-2.016 0.27,3.051 0.269,-2.566 0.27,-0.055 0.269,1.574 0.27,0.098 0.269,-0.106 0.27,0.34 0.269,0.492 0.27,-0.621 0.273,0.129 0.27,-0.32 0.269,0.32 0.27,-0.086 0.269,0.328 0.27,-0.414 0.269,0.387 0.27,-2.308 0.269,1.921 0.27,0.192 0.27,-0.211 0.269,-0.024 0.27,0.235 0.269,-0.235 0.27,1.036 0.269,-0.77 0.27,-2.246 0.269,1.406 0.274,0.449 0.269,-0.043 0.27,0.235 0.269,-2.395 0.27,3.985 0.269,-1.657 0.27,0 0.269,0.321 0.27,-4.141 0.269,1.348 0.27,1.722 0.27,-2.097 0.269,0.953 0.27,1.855 0.269,-0.043 0.27,0.899 0.269,-0.707 0.27,-0.278 0.273,0.262 0.27,-0.262 0.269,0.254 0.27,-0.191 0.269,-0.082 0.27,0.211 0.269,0.859 0.27,-0.691 0.269,-0.02 0.27,-0.211 0.269,0.168 0.27,0.305 0.27,-0.367 0.269,-0.402 0.27,-0.891 0.269,0.949 0.27,-0.004 0.269,0.348 0.274,0.883 0.269,-0.758 0.27,0.129 0.269,-0.078 0.27,-1.563 0.269,1.281 0.27,0.02 0.269,-0.106 0.27,1.032 0.269,-0.629 0.27,-0.34 0.269,0.277 0.27,-2.086 0.27,6.086 0.269,-0.722 0.27,-0.219 0.269,0.457 0.27,-0.121 0.273,-0.289 0.27,0.027 0.269,-0.027 0.27,0.121 0.269,-0.496 0.27,-0.024 0.269,0.977 0.27,-0.551 0.269,0.262 0.27,-0.145 0.269,-0.308 0.27,0.308 0.269,-0.261 0.27,0.191 0.27,-0.145 0.269,0.965 0.27,-0.867 0.269,0.504 0.274,-0.316 0.269,-0.071 0.27,0.071 0.269,0.074 0.27,-0.43 0.269,0.215 0.27,-2.656 0.269,3.086 0.27,-0.535 0.269,-3.434 0.27,-0.594 0.269,0.848 0.27,-0.278 0.269,0.469 0.27,0.516 0.27,-0.961 0.269,-0.129 0.27,0.211 0.273,-1.309 0.27,0.325 0.269,0.535 0.27,0.168 0.269,-0.887 0.27,2.027 0.269,-0.984 0.27,0.062 0.269,-0.148 0.27,0.066 0.269,0.168 0.27,0.879 0.269,-0.84 0.27,0.329 0.269,-0.219 0.27,-0.043 0.27,-0.024 0.269,-0.148 0.273,0.363 0.27,-0.383 0.27,1.207 0.269,-0.972 0.27,0.019 0.269,0.192 0.27,0.051 0.269,-0.2 0.27,-0.191 0.269,0.062 0.27,0.067 0.269,0.797 0.27,-0.692 0.269,-0.215 0.27,0.043 0.269,-0.019 0.27,0.062 0.27,0.008 0.273,-0.324 0.269,0.211 0.27,0.969 0.27,-0.883 0.269,-0.172 0.27,0.066 0.269,-0.148 0.27,0.168 0.269,-0.188 0.27,0.215 0.269,0.27 0.27,0.324 0.269,-0.492 0.27,-0.297 0.269,0.336 0.27,-0.211 0.269,0.105 0.274,0.067 0.269,-0.11 0.27,0.95 0.269,-0.407 0.27,-0.5 0.27,0.258 0.269,-0.172 0.27,0.063 0.269,-0.082 0.27,-0.067 0.269,-0.148 0.27,1.187 0.269,-0.933 0.27,0.023 0.269,0.051 0.27,0.164 0.269,-0.574 0.27,-0.289 0.273,2.769 0.27,1.825 0.269,-0.582 0.27,-0.094 0.269,-0.238 0.27,0.285 0.27,-0.117 0.269,-0.141 0.27,0.164 0.269,-0.895 0.27,1.645 0.269,-0.68 0.27,-0.117 0.269,-0.051 0.27,0.051 0.269,-0.144 0.27,0.093 0.269,0.555 0.274,-0.672 0.269,0.938 0.27,-0.485 0.269,-0.121 0.27,-0.117 0.269,0.047 0.27,0 0.27,-0.024 0.269,-0.144 0.27,0.918 0.269,-0.582 0.27,0.047 0.269,-0.239 0.27,0.071 0.269,-0.141 0.27,-0.191 0.269,0.14 0.27,-0.093 0.273,1.039 0.27,-0.61 0.269,-0.168 0.27,0.028 0.269,-8.211 0.27,0.129 0.269,4.129 0.27,-2.129 0.27,0.093 0.269,6.188 0.27,-0.344 0.269,0.164 0.27,-0.285 0.269,0.578 0.27,-0.695 0.269,0.262 0.27,-0.309 0.269,0.141 0.274,1.011 0.269,-0.941 0.27,0.144 0.269,0.094 0.27,-0.332 0.269,0.094 0.27,-3.219 0.269,-1.008 0.27,1.598 0.27,0.262 0.269,-1.715 0.27,0.703 0.269,0.215 0.27,-0.024 0.269,-0.148 0.27,0.148 0.269,0.094 0.27,0.945 0.273,-0.761 0.27,-0.129 0.269,-0.149 0.27,-0.168 0.269,0.192 0.27,-0.278 0.269,0.36 0.27,0.801 0.269,-0.844 0.27,0.18 0.27,-0.243 0.269,-0.191 0.27,0.023 0.269,-0.023 0.27,0.086 0.269,-1.234 0.27,2.16 0.269,-1.075 0.274,0.211 0.269,-0.148 0.27,0.242 0.269,-0.113 0.27,0.043 0.269,-0.297 0.27,0.148 0.269,0.856 0.27,-0.625 0.269,-0.039 0.27,0.039 0.27,-0.106 0.269,0.45 0.27,-0.461 0.269,-0.032 0.27,-0.062 0.269,1.32 0.27,-1.066 0.273,-0.082 0.27,-0.067 0.269,-0.043 0.27,-0.019 0.269,0.148 0.27,0.219 0.269,-0.387 0.27,1.207 0.269,-1.019 0.27,-0.106 0.269,-2.632 0.27,1.781 0.27,1.453 0.269,-20.813 0.27,-5.3 5.125,0 0.269,42.707 0.27,70.785 0.273,-4.516 0.27,-0.406 0.269,6.684 0.27,-4.043 0.269,-3.614 0.27,8.145 0.269,-3.16 0.27,-4.313 0.269,-1.597 0.27,2.769 0.269,5.445 0.27,-0.324 0.269,0.699 0.27,0.707 0.27,-5.222 0.269,-0.496 0.27,3.586 0.269,-4.047 0.274,3.136 0.269,0.649 0.27,1.363 0.269,1.324 0.27,-4.074 0.269,-0.867 0.27,-3.109 0.269,1.226 0.27,8.262 0.269,-4.684 0.27,-6.078 0.269,10.758 0.27,-5.398 0.269,2.003 0.27,3.528 0.27,-5.903 0.269,2.563 0.27,-2.223 0.273,-1.355 0.27,3.492 0.269,28.871 0.27,46.805 0.269,5.539 0.27,-19.797 0.269,-0.223 0.27,21.067 0.269,-20.074 0.27,20.203 0.269,-8.547 0.27,-0.028 0.269,12.344 0.27,-11.293 0.269,4.223 0.27,-5.902 0.27,0.433 0.269,1.488 0.274,6.02 0.269,-8.68 0.27,-11.843 0.269,20.324 0.27,-6.41 0.269,1.816 0.27,8.434 0.269,-13.235 0.27,6.621 0.269,-4.711 0.27,11.129 0.269,-11.148 0.27,9.98 0.269,-10.308 0.27,-3.352 0.269,13.875 0.27,-10.582 0.273,14.82 0.27,-15.293 0.27,1.844 0.269,2.153 0.27,-3.93 0.269,7.902 0.27,-3.754 0.269,-5.636 0.27,4.429 0.269,-5.14 0.27,-7.282 0.269,-4.254 0.27,22.891 0.269,2.543 0.27,-1.949 0.269,-3.004 0.27,3.5 0.269,0.258 0.274,0.32 0.269,-4.051 0.27,3.176 0.27,2.168 0.269,-6.203 0.27,3.922 0.269,-0.946 0.27,-0.765 0.269,-0.445 0.27,2.027 0.269,0.621 0.27,-5.691 0.269,5.07 0.27,0.047 0.269,0.136 0.27,-1.523 0.269,2.125 0.27,0.258 0.273,-3.07 0.27,1.164 0.269,1.183 0.27,-2.172 0.27,1.973 0.269,0.293 0.27,-1.145 0.269,-2.707 0.27,4.098 0.269,0.137 0.27,-2.219 0.269,0.57 0.27,-0.367 0.269,4.258 0.27,-4.5 0.269,2.871 0.27,-2.75 0.269,-0.664 0.274,2.973 0.269,-0.969 0.27,-0.445 0.269,-0.039 0.27,2.707 0.27,-0.379 0.269,-2.821 0.27,0.84 0.269,1.379 0.27,-4.617 0.269,2.742 0.27,1.801 0.269,-1.246 0.27,-4.199 0.269,5.503 0.27,-0.628 0.269,-2.661 0.27,0.457 0.273,3.161 0.27,-2.594 0.269,-0.813 0.27,20.942 0.269,9.426 0.27,-3.458 0.27,12.145 0.269,-4.168 0.27,-2.617 0.269,0.273 0.27,22.2 0.269,-16.172 0.27,-4.227 0.269,17.656 0.27,-19.308 0.269,3.711 0.27,19.961 0.269,-17.489 0.274,-5.265 0.269,2.863 0.27,8.852 0.269,-14.43 0.27,0.558 0.269,18.219 0.27,-20.613 0.27,-2.07 0.269,17.296 0.27,-15.699 0.269,-1.121 0.27,11.328 0.269,-5.332 0.27,-1.519 0.269,1.433 0.27,18.86 0.269,-15.645 0.27,-2.996 0.273,17.258 0.27,-16.16 0.269,0.691 0.27,21.277 0.269,-18.304 0.27,-5.164 0.269,2.347 0.27,11.348 0.27,-15.5 0.269,2.305 0.27,16.644 0.269,-19.176 0.27,-3.457 0.269,17.125 0.27,-16.484 0.269,0.715 0.27,9.215 0.269,-4.059 0.274,-2.847 0.269,1.425 0.27,19.535 0.269,-15.738 0.27,-2.66 0.269,18.453 0.27,-18.945 0.269,0.262 0.27,23.757 0.27,-19.961 0.269,-3.636 0.27,2.359 0.269,8.285 0.27,-29.98 0.269,-9.973 0.27,-1.812 0.269,9.171 0.27,-5.5 0.273,-2.226 0.27,3.863 0.269,-5.035 0.27,10.047 0.269,-7.211 0.27,1.801 0.269,-8.649 0.27,8.028 0.269,-3.207 0.27,1.332 0.27,3.297 0.269,-7.735 0.27,10.356 0.269,-5.793 0.27,0.015 0.269,-4.531 0.27,7.609 0.269,-5.679 0.274,-0.528 0.269,9.344 0.27,-4.848 0.269,4.821 0.27,-5.688 0.269,1.094 0.27,-0.023 0.269,8.332 0.27,-8.575 0.269,-1.003 0.27,7.378 0.27,-8.109 0.269,7.84 0.27,-2.453 0.269,-5.242 0.27,3.058 0.269,6.727 0.27,-9.664 0.273,-0.465 0.27,4.238 0.269,-4.223 0.27,8.157 0.269,-1.621 0.27,-8.055 0.269,0.387 0.27,8.035 0.269,-6.125 0.27,3.172 0.269,3.406 0.27,-3.332 0.27,2.894 0.269,-2.281 0.27,-4.148 0.269,-0.922 0.27,5.238 0.269,2.918 0.274,-2.687 0.269,0.468 0.27,-8.312 0.269,7.824 0.27,1.055 0.269,-3.938 0.27,-2.871 0.269,7.563 0.27,-1.028 0.269,-4.406 0.27,0.754 0.269,-0.969 0.27,4.395 0.27,-3.074 0.269,-0.297 0.27,-2.364 0.269,10.293 0.27,-9.609 0.273,1.227 0.27,2.152 0.269,-0.238 0.27,0.984 0.269,-68.406 0.27,-106.969 0.269,0.336 0.27,-0.191 0.269,0.777 0.27,-1.277 0.269,0.425 0.27,0.168 0.269,-0.121 0.27,-0.164 0.27,0.215 0.269,-0.289 0.27,1.09 0.269,-0.852 0.274,-0.328 0.269,0.043 0.27,0.383 0.269,-0.313 0.27,0 0.269,-0.047 0.27,-3.832 0.269,-0.308 0.27,0.785 0.269,-1.977 0.27,2.262 0.269,2.836 0.27,-0.351 0.269,-3.083 0.27,0.782 0.27,-0.571 0.269,-2.101 0.273,2.058 0.27,0.293 0.27,0.797 0.269,-0.754 0.27,0.2 0.269,-0.071 0.27,-0.254 0.269,0 0.27,0.063 0.269,0.105 0.27,-0.148 0.269,1.144 0.27,-0.976 0.269,0.172 0.27,-1.93 0.269,2.109 0.27,0.231 0.27,-0.602 0.273,-0.359 0.269,0.488 0.27,0.516 0.27,-0.602 0.269,0 0.27,0.086 0.269,-0.277 0.27,0.453 0.269,-0.602 0.27,-1.789 0.269,2.149 0.27,0.715 0.269,-0.864 0.27,-1.371 0.269,-1.75 0.27,2.797 0.269,-0.152 0.27,-0.203 0.273,3.297 0.27,0.972 0.269,-0.383 0.27,0.215 0.27,-0.543 0.269,-0.629 0.27,1.414 0.269,-0.433 0.27,0.168 0.269,-2.18 0.27,-2.988 0.269,-1.668 0.27,2.84 0.269,0.621 0.27,-0.086 0.269,1.121 0.27,-1.121 0.269,0.148 0.274,0 0.269,0.02 0.27,0.066 0.269,0.157 0.27,-0.348 0.27,0.297 0.269,0.562 0.27,-0.859 0.269,0.125 0.27,-0.063 0.269,-0.125 0.27,0.149 0.269,0 0.27,0.039 0.269,-0.035 0.27,0.531 0.269,-0.496 0.27,-0.039 0.273,-0.172 0.27,-0.043 0.269,0.023 0.27,-0.168 0.269,0.106 0.27,1.113 0.27,-0.726 0.269,-0.348 0.27,0.066 0.269,0.125 0.27,-0.336 0.269,-0.785 0.27,0.996 0.269,0.965 0.27,-0.711 0.269,-0.234 0.27,0.086 0.269,0.476 0.274,-0.543 0.269,0.149 0.27,0.066 0.269,0.043 0.27,0.649 0.269,-1.598 0.27,0.863 0.27,-0.437 0.269,-1.973 0.27,6.383 0.269,0.023 0.27,-0.773 0.269,-0.121 0.27,-0.141 0.269,0.117 0.27,0.43 0.269,-0.191 0.27,0.801 0.273,-0.895 0.27,0.285 0.269,-0.262 0.27,-0.046 0.269,-0.356 0.27,0.188 0.269,0.046 0.27,0.262 0.27,0.656 0.269,-0.582 0.27,-0.214 0.269,0 0.27,-0.543 0.269,0.449 0.27,-0.215 0.269,0.473 0.27,-0.332 0.269,1.257 0.274,-1.164 0.269,0.145 0.27,-0.426 0.269,0.281 0.27,-0.023 0.269,0.457 0.27,-0.094 0.269,-0.027 0.27,0.558 0.27,-0.488 0.269,-0.168 0.27,-0.262 0.269,-0.281 0.27,0.449 0.269,0.168 0.27,0.047 0.269,-0.023 0.27,0.633 0.273,-0.633 0.27,-0.238 0.269,-0.168 0.27,-0.047 0.269,-2.246 0.27,-1.637 0.269,2.363 0.27,-1.508 0.269,-0.062 0.27,0.324 0.27,-0.367 0.269,-0.211 0.27,-0.148 0.269,0.128 0.27,0.039 0.269,-1.093 0.27,-0.942 0.269,4.985 0.274,-5.203 0.269,0.535 0.27,1.23 0.269,-0.488 0.27,4.562 0.269,-2.664 0.27,2.641 0.269,-0.309 0.27,0.309 0.269,-0.215 0.27,0.645 0.27,-0.383 0.269,0.168 0.27,-0.313 0.269,-0.047 0.27,0.098 0.269,-0.027 0.27,-0.094 0.273,0 0.27,0.891 0.269,-0.555 0.27,-0.027 0.269,-0.239 0.27,0.508 0.269,-0.242 0.27,-0.215 0.269,0.047 0.27,-0.238 0.269,1.035 0.27,-0.582 0.27,-0.098 0.269,-0.047 0.27,0.047 0.269,0 0.27,-0.117 0.269,-0.098 0.274,-0.14 0.269,0.937 0.27,-0.484 0.269,-0.238 0.27,-0.215 0.269,0.261 0.27,0 0.269,0.024 0.27,-6.262 0.269,1.18 0.27,-1.906 0.269,7.035 0.27,-4.086 0.27,0.367 0.269,0.148 0.27,0.02 0.269,0.023 0.27,0.02 0.273,0.043 0.27,0.391 0.269,-0.415 0.27,0.926 0.269,-0.476 0.27,-0.469 0.269,0.105 0.27,0 0.269,-0.019 0.27,0.062 0.269,0 0.27,0.754 0.269,-0.406 0.27,-0.41 0.27,0.082 0.269,-0.106 0.27,-0.019 0.269,-0.149 0.274,0.254 0.269,-0.105 0.27,0.836 0.269,-0.559 0.27,-0.144 0.269,-0.196 0.27,-0.086 0.269,0.192 0.27,-0.36 0.269,0.336 0.27,-0.461 0.269,1.325 0.27,-1.157 0.269,0.168 0.27,-0.023 0.27,0.711 0.269,-0.711 0.274,-0.102 0.269,0.25 0.27,0.024 0.269,0.707 0.27,-0.387 0.269,-0.406 0.27,0.129 0.269,-0.043 0.27,0.125 0.269,0.094 0.27,-0.051 0.269,-0.192 0.27,1.016 0.269,-1.035 0.27,0.211 0.269,-0.297 0.27,0.234 0.27,-0.277 0.273,0.234 0.27,0.243 0.269,-0.411 0.27,0.946 0.269,-0.84 0.27,-0.274 0.269,0.231 0.27,0 0.269,-0.086 0.27,0 0.269,-0.188 0.27,1.352 0.269,-0.965 0.27,-0.367 0.269,0.168 0.27,0 0.269,0.043 0.27,-0.043 0.273,-22.871 0.27,-2.527 0.27,-0.008 0.539,0 0.269,-0.004 0.27,0.004 0.269,0.008 0.27,-0.008 1.078,0 0.269,-0.004 0.27,0.004 0.269,0 0.27,0.008 0.269,-0.008 0.813,0 0.27,67.945 0.269,39.051 0.27,3.711 0.269,-3.856 0.27,2.297 0.269,2.063 0.27,-1.184 0.269,-6.891 0.27,11.055 0.269,-1.539 0.27,-3.426 0.269,5.356 0.27,-1.082 0.269,-3.172 0.27,-0.328 0.273,3.66 0.27,-7.731 0.269,9.618 0.27,0.269 0.27,-11.172 0.269,6.625 0.27,-2.133 0.269,0.625 0.27,7.743 0.269,-11.844 0.27,10.445 0.269,-7.566 0.27,6.929 0.269,-3.375 0.27,5.297 0.269,-5.601 0.27,0.879 0.269,7.453 0.274,-17.231 0.269,12.418 0.27,-8.152 0.269,-4.09 0.27,7.926 0.27,7.922 0.269,34.847 0.27,36.633 0.269,-1.804 0.27,9.613 0.269,-9.215 0.27,0.367 0.269,0.629 0.27,-4.523 0.269,10.843 0.27,-1.73 0.269,3.648 0.27,-12.336 0.273,17.497 0.27,-15.305 0.269,4.273 0.27,1.602 0.269,-3.043 0.27,-4.711 0.27,0.648 0.269,14.942 0.27,-13.742 0.269,5.617 0.27,-0.692 0.269,-2.554 0.27,6.488 0.269,-10.512 0.27,5.946 0.269,-6.254 0.27,10.043 0.269,-11.379 0.274,5.383 0.269,-6.575 0.27,0.703 0.269,8.801 0.27,-9.504 0.269,13.559 0.27,-13.906 0.27,0.316 0.269,2.277 0.27,-5 0.269,15.18 0.27,-13.465 0.269,4.617 0.27,-19.308 0.269,12.73 0.27,12.649 0.269,3.703 0.27,-1.082 0.273,-2.375 0.27,2.07 0.269,-1.148 0.27,-1.227 0.269,1.531 0.27,2.418 0.269,-0.722 0.27,-2.899 0.27,1.961 0.269,0.813 0.27,-0.625 0.269,-2.438 0.27,4.176 0.269,-2.652 0.27,-1.11 0.269,1.84 0.27,1.301 0.269,-1.703 0.274,-1.293 0.269,1.414 0.27,2.121 0.269,-4.27 0.27,3.063 0.269,2.012 0.27,-3.106 0.269,-1.168 0.27,2.492 0.27,-0.711 0.269,-3.039 0.27,3.942 0.269,1.719 0.27,-2.993 0.269,-0.484 0.27,0.457 0.269,1.422 0.27,-2.984 0.273,1.464 0.27,3.868 0.269,-4.797 0.27,2.941 0.269,0.606 0.27,-2.372 0.269,-0.664 0.27,1.922 0.269,0.754 0.27,-2.398 0.27,0.203 0.269,2.379 0.27,-3.43 0.269,-0.207 0.27,2.578 0.269,1.754 0.27,-2.043 0.269,-2.562 0.274,2.621 0.269,-2.2 0.27,-0.515 0.269,5.18 0.27,-4.125 0.269,-0.629 0.27,24.976 0.269,19.192 0.27,-12.504 0.269,-5.227 0.27,23.535 0.27,-19.629 0.269,-0.617 0.27,12.121 0.269,-15.187 0.27,-0.082 0.269,14.105 0.27,-13.551 0.273,-3.277 0.27,4.539 0.269,17.387 0.27,-18.805 0.269,-3.351 0.27,23.386 0.269,-12.902 0.27,0.113 0.269,21.742 0.27,-29.355 0.269,3.34 0.27,9.465 0.27,3.5 0.269,-12.145 0.27,-3.07 0.269,22.367 0.27,-18.504 0.273,-1.836 0.27,13.188 0.269,-16.332 0.27,-0.473 0.269,16.785 0.27,-16.078 0.269,-2.422 0.27,4.238 0.269,17.055 0.27,-18.711 0.269,-1.344 0.27,23.137 0.269,-16.062 0.27,1.683 0.27,23.442 0.269,-32.16 0.27,4.117 0.269,8.414 0.274,3.734 0.269,-9.293 0.27,-5.101 0.269,21.406 0.27,-19.735 0.269,0.192 0.27,13.863 0.269,-15.824 0.27,-1.805 0.269,16.188 0.27,-14.461 0.269,-3.82 0.27,4.531 0.269,18.984 0.27,-20.48 0.27,-3.496 0.269,25.683 0.27,-43.039 0.273,-2.758 0.27,1.164 0.269,7.032 0.27,-5.121 0.269,0.019 0.27,3.535 0.269,1.242 0.27,-1.238 0.269,-1.418 0.27,-3.187 0.269,-1.243 0.27,10.938 0.269,-6.578 0.27,-5.504 0.269,3.074 0.27,0.438 0.27,0.007 0.269,4.918 0.273,-7.074 0.27,-0.668 0.27,9.883 0.269,-4.066 0.27,-1.926 0.269,2.523 0.27,0.793 0.269,-2.199 0.27,1.43 0.269,-5.567 0.27,3.45 0.269,9.183 0.27,-8.14 0.269,-5.446 0.27,4.055 0.269,1.531 0.27,-3.469 0.27,4.879 0.273,-8.363 0.269,4.145 0.27,10.433 0.27,-7.859 0.269,-7.008 0.27,6.66 0.269,1.113 0.27,3.477 0.269,-3.449 0.27,-3.824 0.269,-0.051 0.27,11.363 0.269,-7.254 0.27,-6.539 0.269,3.973 0.27,4.406 0.269,-5.746 0.27,2.39 0.273,-3.367 0.27,1.391 0.269,10.066 0.27,-5.578 0.27,-6.644 0.269,-2.426 0.27,7.484 0.269,-0.578 0.27,2.16 0.269,-5.054 0.27,-3.246 0.269,14.417 0.27,-6.648 0.269,-6.277 0.27,4.539 0.269,2.91 0.27,-3.434 0.269,2.035 0.274,-3.632 0.269,-1.321 0.27,11.387 0.269,-11.695 0.27,0.699 0.27,5.254 0.269,-0.207 0.27,0.348 0.269,-84.606 0.27,-94.621 0.269,0.297 0.27,-0.043 0.269,0.223 0.27,0.445 0.269,-0.516 0.27,-0.301 0.269,0.192 0.27,-0.274 0.273,0.106 0.27,0 0.269,0.211 0.27,0.562 0.269,-0.754 0.27,0.305 0.27,-0.41 0.269,-0.063 0.27,-0.168 0.269,-1.82 0.27,2.051 0.269,0.879 0.27,-0.836 0.269,0.019 0.27,-0.168 0.269,0.469 0.27,-0.375 0.269,-0.262 0.274,0.086 0.269,0.336 0.27,0.625 0.269,-0.879 0.27,0.274 0.269,-0.168 0.27,-1.629 0.27,1.586 0.269,0.625 0.27,-0.477 0.269,-0.062 0.27,0.883 0.269,-0.649 0.27,-0.234 0.269,0.34 0.27,-0.235 0.269,-0.129 0.27,-0.125 0.273,0.297 0.27,0.2 0.269,0.644 0.27,-0.973 0.269,0.043 0.27,-0.019 0.269,0.082 0.27,-0.442 0.27,0.274 0.269,-0.149 0.27,-0.289 0.269,-0.82 0.27,0.477 0.269,0.218 0.27,1.399 0.269,-2.492 0.27,1.824 0.269,0.582 0.274,-0.75 0.269,-0.125 0.27,-0.043 0.269,-0.063 0.27,0.727 0.269,-0.477 0.27,0.024 0.269,-0.192 0.27,1.204 0.27,-0.926 0.269,-0.11 0.27,0.043 0.269,-0.105 0.27,0.148 0.269,0.129 0.27,-1.644 0.269,1.929 0.27,-0.156 0.273,-0.258 0.27,0.043 0.269,-0.062 0.27,-0.043 0.269,-0.098 0.27,0.203 0.269,0.754 0.27,-0.648 0.269,0.156 0.27,-0.367 0.27,-0.106 0.269,-0.316 0.27,0.613 0.269,-0.172 0.27,-0.062 0.269,0.879 0.27,-0.899 0.269,0.082 0.274,0.262 0.269,-0.555 0.27,-0.187 0.269,0.332 0.27,0.043 0.269,0.086 0.27,0.566 0.269,-0.355 0.27,-0.254 0.269,-0.02 0.27,0.188 0.27,0.328 0.269,-2.707 0.27,5.066 0.269,-3.902 0.27,1.324 0.269,-0.043 0.27,-0.023 0.273,-0.274 0.27,0.082 0.269,-0.039 0.27,0.254 0.269,0.133 0.27,0.734 0.269,-1.207 0.27,0.489 0.269,-0.34 0.27,-0.254 0.269,-0.043 0.27,0.316 0.27,-0.019 0.269,0.816 0.27,-0.425 0.269,-0.348 0.27,-0.086 0.273,-0.063 0.27,-0.105 0.269,-0.188 0.27,0.207 0.269,0.149 0.27,0.879 0.269,-0.774 0.27,0.063 0.269,0.308 0.27,-0.496 0.269,0.106 0.27,0 0.269,-0.086 0.27,0.129 0.27,0.906 0.269,-0.781 0.27,0.066 0.269,-0.277 0.274,0.191 0.269,0.176 0.27,-0.41 0.269,0.086 0.27,-0.024 0.269,0.973 0.27,-1.016 0.269,0.149 0.27,0 0.269,-0.399 0.27,0.293 0.269,-0.23 0.27,0.641 0.269,-0.387 0.27,0.598 0.27,-0.555 0.269,-0.149 0.27,-0.066 0.273,-0.145 0.27,-0.062 0.269,0.105 0.27,0.293 0.269,0.329 0.27,0.492 0.269,-1.051 0.27,0.465 0.269,-0.34 0.27,0 0.269,0.148 0.27,-0.129 0.269,-0.019 0.27,1.144 0.269,-0.976 0.27,0.285 0.27,-0.176 0.269,-1.945 0.274,1.625 0.269,-0.043 0.27,0.148 0.269,-0.671 0.27,-3.141 0.269,3.195 0.27,0.074 0.269,-0.625 0.27,0.981 0.269,0.617 0.27,-2.547 0.269,1.43 0.27,1.246 0.269,-0.453 0.27,0.734 0.269,-0.859 0.27,0.363 0.27,-0.387 0.273,0.415 0.27,-0.622 0.269,0.063 0.27,0.125 0.269,-0.063 0.27,1.051 0.269,-0.902 0.27,-0.192 0.269,0.086 0.27,-0.105 0.269,0.062 0.27,0.239 0.269,-0.262 0.27,0.129 0.269,0.793 0.27,-1.047 0.269,0.316 0.27,-0.086 0.273,0.149 0.27,-0.02 0.27,-0.062 0.269,0.508 0.27,-0.625 0.269,0.781 0.27,-0.473 0.269,-0.043 0.27,0.043 0.269,-0.043 0.27,-0.148 0.269,-0.067 0.27,-0.019 0.269,-3.617 0.27,2.609 0.269,-0.047 0.27,-2.375 0.269,3.387 0.274,1.144 0.269,-0.996 0.27,-0.043 0.27,0.067 0.269,-0.149 0.27,-0.066 0.269,0.277 0.27,-0.203 0.269,0.141 0.27,0.773 0.269,-0.711 0.27,-0.254 0.269,0 0.27,-0.125 0.269,0.145 0.27,-0.106 0.269,0.086 0.27,0.454 0.273,0.425 0.27,-0.668 0.269,-0.336 0.27,0.399 0.27,-1.797 0.269,1.293 0.27,0.398 0.269,0.106 0.27,0.605 0.269,-0.687 0.27,0.347 0.269,-0.347 0.27,-0.024 0.269,0.192 0.27,-0.192 0.269,0.129 0.27,-0.234 0.269,0.879 0.274,-0.731 0.269,0 0.27,-0.019 0.269,0.262 0.27,-0.286 0.27,-0.086 0.269,-0.062 0.27,-0.168 0.269,0.984 0.27,-0.605 0.539,-0.211 0.269,-0.063 0.27,0.489 0.269,-0.481 0.27,-0.176 0.269,0.125 0.27,1.118"
           style="fill:none;stroke:#fc8d59;stroke-width:2.13395691;stroke-linecap:butt;stroke-linejoin:round;stroke-miterlimit:1;stroke-dasharray:none;stroke-opacity:1"
           id="path32359"
           inkscape:connector-curvature="0" /><path
           d="m 77.238,81.875 0.27,0.309 0.269,-0.106 0.27,0 0.269,0.102 0.27,-0.114 0.269,0.34 0.27,0.004 0.27,-0.371 0.269,-0.293 0.274,0.387 0.269,0.172 0.27,-0.176 0.269,0.031 0.27,-0.129 0.269,0.141 0.27,0.117 0.269,-0.129 0.27,-0.187 0.269,0.461 0.27,-0.145 0.269,-0.219 0.27,0.082 0.269,-0.121 0.27,0.196 0.269,0.109 0.27,-0.27 0.27,-0.144 0.273,0.328 0.27,-0.059 0.269,0.09 0.27,-0.351 0.269,0.414 0.27,0.152 0.269,-0.172 0.27,-0.265 0.269,0.14 0.27,0.043 0.269,0.063 0.27,-0.344 0.269,0.148 0.27,0.153 0.269,0.176 0.27,-0.122 0.269,-0.257 0.27,-0.004 0.273,0.105 0.27,0.129 0.27,-0.051 0.269,-0.179 0.27,0.078 0.269,0.371 0.27,-0.328 0.269,-0.106 0.27,-0.019 0.269,0.187 0.27,-0.398 0.269,0.219 0.27,0.113 0.269,-5.988 0.27,-17.086 0.269,-2.094 0.27,3.277 0.269,-1.035 0.274,-4.098 0.269,4.399 0.27,-5.942 0.27,3.661 0.269,1.707 0.27,-2 0.269,-1.368 0.27,-1.601 0.269,-0.211 0.27,-0.672 0.269,3.027 0.27,-2.929 0.269,6.199 0.27,-1.602 0.269,-0.386 0.27,-1.149 0.269,-0.828 0.27,0.641 0.273,0.683 0.27,-1.586 0.269,-2.156 0.27,4.231 0.27,1.531 0.269,-1.098 0.27,-1.133 0.269,-0.109 0.27,0.305 0.269,-1.203 0.27,-0.665 0.269,-1.144 0.27,-0.574 0.269,4.035 0.27,-3.981 0.269,5.254 0.27,-0.718 0.269,-1.168 0.274,-3.153 0.269,3.024 0.27,3.535 0.269,-1.496 0.27,0.394 0.27,-0.953 0.269,-2.422 0.27,3.207 0.269,-0.3 0.27,-2.344 0.269,-1.227 0.27,-0.293 0.269,1.903 0.27,2.66 0.269,-1.231 0.27,2.414 0.269,-1.07 0.27,-0.902 0.273,-2.766 0.27,-0.863 0.269,-0.203 0.27,2.871 0.269,1.051 0.27,0.257 0.27,1.403 0.269,-3.203 0.27,-2.622 0.269,3.645 0.27,-4.57 0.269,4.933 0.27,-0.496 0.269,-1.23 0.27,-1.325 0.269,-1.222 0.27,-0.395 0.273,1.067 0.27,1.972 0.269,-3.855 0.27,7.269 0.269,-2.695 0.27,-0.832 0.269,-2.797 0.27,0.153 0.27,0.23 0.269,1.086 0.27,4.016 0.269,-2.668 0.27,3.761 0.269,-1.086 0.27,-0.886 0.269,-2.766 0.27,0.121 0.269,-1.203 0.274,2.938 0.269,1.085 0.27,-0.937 0.269,2.512 0.27,-1.172 0.269,-0.75 0.27,-2.871 0.269,0.336 0.27,-1.184 0.27,3.981 0.269,-0.618 0.27,0.477 0.269,1.543 0.27,-1.11 0.269,-1.113 0.27,-1.574 0.269,-1.25 0.27,-0.379 0.273,5.152 0.27,-2.41 0.269,1.805 0.27,-1.121 0.269,1.93 0.27,0.035 0.269,-3.489 0.27,-0.289 0.269,-1.964 0.27,-0.067 0.27,-1.582 0.269,1.895 0.27,4.406 0.269,-0.313 0.27,0.313 0.269,1.109 0.27,-1.023 0.269,-1.332 0.274,-2.422 0.269,-0.254 0.27,-0.332 0.269,5.453 0.27,-2.176 0.269,1.614 0.27,0.253 0.269,-0.996 0.27,-1.714 0.269,-1.875 0.27,-0.313 0.27,0.285 0.269,6.106 0.27,-4.516 0.269,3.441 0.27,-0.652 0.269,-0.797 0.27,-2.179 0.273,-1.497 0.27,-0.312 0.269,1.246 0.27,4.359 0.269,-3.281 0.27,3.66 0.269,-1.414 0.27,-0.754 0.269,-2.511 0.27,-1.036 0.269,-0.312 0.27,2.316 0.27,1.778 0.269,-1.84 0.27,3.414 0.269,-1.18 0.27,-0.535 0.269,-3.141 0.274,-0.707 0.269,-0.164 0.27,4.442 0.269,-0.696 0.27,-0.359 0.269,2.098 0.27,-1.133 0.269,-0.879 0.27,-2.848 0.269,-0.312 0.27,-0.387 0.269,5.633 0.27,-2.473 0.27,0.953 0.269,1.247 0.27,-0.985 0.269,-1.465 0.27,-2.226 0.273,-0.36 0.27,-0.218 0.269,6.679 0.27,-4.316 0.269,2.453 0.27,0.219 0.269,-0.906 0.27,-1.786 0.269,-1.918 0.27,-0.367 0.269,1.41 0.27,-2.679 0.269,3.91 0.27,-3.965 0.27,5.219 0.269,-0.699 0.27,-1.2 0.269,-1.418 0.274,-1.203 0.269,0.235 0.27,0.07 0.269,2.301 0.27,-3.512 0.269,6.879 0.27,-2.652 0.269,-0.844 0.27,-1.645 0.269,-0.847 0.27,-0.024 0.269,0.977 0.27,0.945 0.269,-1.793 0.27,5.527 0.27,-2.461 0.269,-0.601 0.27,-2.137 0.273,-0.445 0.27,-0.098 0.269,1.668 0.27,-0.394 0.269,0.136 0.27,3.813 0.269,-2.106 0.27,-0.66 0.269,-2.011 0.27,-0.407 0.269,-0.207 0.27,2.754 0.269,-2.039 0.27,2.008 0.269,2.18 0.27,-1.778 0.27,-0.957 0.269,-0.644 0.273,-2.371 0.27,1.359 0.27,5.617 0.269,-1.422 0.27,-0.168 0.269,0.59 0.27,0.965 0.269,-1.035 0.27,-1.395 0.269,-2.242 0.27,-0.43 0.269,-0.203 0.27,5.782 0.269,-3.051 0.27,2.14 0.269,0.235 0.27,-0.977 0.27,-1.746 0.273,-1.855 0.269,-0.371 0.27,1.382 0.27,4.227 0.269,-3.629 0.27,0.539 0.269,2.5 0.27,-1.367 0.269,-1.922 0.27,-1.164 0.269,-0.328 0.27,-1.227 0.269,0.227 0.27,2.73 0.269,-3.543 0.27,6.95 0.269,-2.707 0.27,-0.844 0.273,-1.645 0.27,0.086 0.269,-1.351 0.27,1.004 0.27,1.296 0.269,-1.761 0.27,5.531 0.269,-2.481 0.27,-0.601 0.269,-2.137 0.27,0.473 0.269,-1.52 0.27,1.868 0.269,-0.106 0.27,0.18 0.269,3.734 0.27,-2.086 0.269,-0.644 0.274,-2.012 0.269,0.512 0.27,-1.598 0.269,2.816 0.27,-1.582 0.27,1.946 0.269,2.277 0.27,-1.875 0.269,-0.895 0.27,-0.941 0.269,-0.988 0.27,-0.797 0.269,3.586 0.27,-2.977 0.269,3.813 0.27,0.543 0.269,-1.473 0.27,-1.164 0.273,-0.516 0.27,-1.203 0.269,-0.32 0.27,3.621 0.269,-3.844 0.27,5.676 0.27,-1.269 0.269,-1.047 0.27,-9.778 0.269,0.258 0.27,0.02 0.269,-0.02 0.27,0.012 0.269,0.008 0.27,-0.02 0.269,0.012 0.543,0 0.27,0.008 0.269,-0.008 0.27,0 0.269,-0.012 0.27,0.012 0.269,0.008 0.27,-0.008 0.27,-0.012 0.269,0.02 0.27,-0.02 0.269,0.012 0.27,32.769 0.269,4.747 0.27,0.312 0.269,-0.789 0.27,0.785 0.269,-0.019 0.274,0.57 0.269,-0.738 0.27,0.32 0.269,-1.141 0.27,0.867 0.269,0.247 0.27,-0.036 0.269,0.129 0.27,-0.16 0.27,-0.883 0.269,0.684 0.27,-0.012 0.269,0.371 0.27,-0.035 0.269,-0.031 0.27,-0.367 0.269,-0.418 0.27,0.429 0.273,0.2 0.27,0.093 0.269,-0.16 0.27,0.032 0.269,-0.618 0.27,0.563 0.269,0.019 0.27,0.211 0.269,-0.136 0.27,-0.219 0.27,-0.504 0.269,0.742 0.27,0.012 0.269,0.199 0.27,-0.207 0.269,0.441 0.27,-0.691 0.269,0.586 0.274,-0.434 0.269,0.496 0.27,0.145 0.269,-0.793 0.27,0.398 0.269,0.375 0.27,-0.386 0.269,-0.282 0.27,0.708 0.269,-0.168 0.27,-0.551 0.27,0.324 0.269,0.332 0.27,-0.687 0.269,0.253 0.27,0.469 0.269,-0.375 0.27,-0.148 0.273,0.511 0.27,-0.054 0.269,-0.692 0.27,0.418 0.269,0.184 0.27,-0.492 0.269,0.133 0.27,0.617 0.269,-0.489 0.27,-0.207 0.269,0.5 0.27,-0.195 0.27,-0.465 0.269,0.336 0.27,0.563 0.269,-0.797 0.27,-0.074 0.269,0.812 0.274,-0.574 0.269,-0.195 0.27,0.644 0.269,-0.031 0.27,-0.5 0.269,0.215 0.27,2.902 0.269,2.023 0.27,-0.113 0.269,-0.101 0.27,0.031 0.269,0.223 0.27,-0.051 0.27,0.324 0.269,-0.793 0.27,0.484 0.269,-0.191 0.27,-0.105 0.273,0.093 0.27,0.453 0.269,-0.117 0.27,-0.269 0.269,-0.172 0.27,-0.25 0.269,0.508 0.27,0.293 0.269,0.082 0.27,-0.481 0.269,-0.23 0.27,0.234 0.269,-0.141 0.27,0.27 0.27,0.098 0.269,-0.055 0.27,-0.043 0.269,-0.113 0.274,-0.059 0.269,0.188 0.27,-0.329 0.269,0.59 0.27,-0.125 0.269,0.051 0.27,-0.699 0.269,0.176 0.27,0.476 0.269,-0.058 0.27,0.129 0.269,-0.54 0.27,0.055 0.269,-0.031 0.27,0.168 0.27,0.164 0.269,-0.008 0.27,-0.238 0.273,0.039 0.27,0.012 0.269,-0.219 0.27,0.168 0.269,-0.102 0.27,0.586 0.269,-0.199 0.27,-0.336 0.269,0.152 0.27,-0.558 0.269,0.695 0.27,0.477 0.269,-0.309 0.27,-0.348 0.269,0.063 0.27,-0.016 0.27,6.946 0.269,5.125 0.274,-0.594 0.269,10 0.27,-9.426 0.269,0.09 0.27,2.535 0.269,2.215 0.27,-4.492 0.269,-0.715 0.27,10.023 0.269,-10.289 0.27,0.223 0.269,8.703 0.27,-8.164 0.269,0.293 0.27,6.281 0.269,-5.609 0.27,-1.5 0.27,1.004 0.273,7.59 0.27,-8.079 0.269,-0.464 0.27,7.863 0.269,-7.492 0.27,-0.278 0.269,9.758 0.27,-9.574 0.269,0.098 0.27,2.898 0.269,1.664 0.27,-4.141 0.269,-0.531 0.27,9.477 0.269,-10.035 0.27,0.078 0.269,9.344 0.27,-8.391 0.273,0.258 0.27,6.05 0.27,-5.175 0.269,-2.059 0.27,1.891 0.269,6.511 0.27,-7.789 0.269,-0.171 0.27,8.039 0.269,-7.852 0.27,-0.398 0.269,9.636 0.27,-9.297 0.269,-0.023 0.27,2.59 0.269,1.91 0.27,-4.176 0.269,-0.672 0.274,9.828 0.269,-10.101 0.27,0.668 0.27,8.637 0.269,-8.61 0.27,0.039 0.269,6.457 0.27,-5.148 0.269,-9.508 0.27,-10.867 0.269,-0.559 0.27,-0.453 0.269,0.336 0.27,-0.203 0.269,0.105 0.27,-0.05 0.269,0.164 0.274,0.039 0.269,-0.336 0.27,0.105 0.269,-0.093 0.27,-0.086 0.27,0.113 0.269,-0.024 0.27,0.243 0.269,0.082 0.27,-0.118 0.269,-0.191 0.27,0.055 0.269,-0.059 0.27,0.016 0.269,0.14 0.27,-0.113 0.269,0.32 0.27,-0.199 0.273,0.016 0.27,-0.176 0.269,0.188 0.27,-0.028 0.269,-0.113 0.27,-0.152 0.27,0.148 0.269,0.356 0.27,-0.208 0.269,0.086 0.27,-0.183 0.269,0.242 0.27,-0.289 0.269,0.031 0.27,0.215 0.269,-0.234 0.27,0.187 0.269,-0.051 0.274,-0.004 0.269,-0.273 0.27,0.191 0.269,-0.109 0.27,0.106 0.269,-0.055 0.27,0.023 0.27,0.129 0.269,0.184 0.27,-0.125 0.269,-0.297 0.27,0.133 0.269,-0.028 0.27,0.18 0.269,-0.262 0.27,-0.093 0.269,0.179 0.27,0.207 0.273,-0.09 0.27,-0.21 0.539,0.187 0.269,0.059 0.27,-0.153 0.269,0.032 0.27,-0.067 0.27,0.27 0.269,-0.227 0.27,-0.183 0.269,0.187 0.27,-0.016 0.269,0.004 0.27,0.203 0.269,-0.253 0.27,0.433 0.269,-0.164 0.274,-4.223 0.269,-18.359 0.27,-2.566 0.269,-0.836 0.27,-1.805 0.269,-0.992 0.27,1.347 0.269,0.227 0.27,-0.703 0.27,2.5 0.269,1.715 0.27,0.547 0.269,-2.633 0.27,4.719 0.269,-2.008 0.27,-0.809 0.269,-2.262 0.27,-1.394 0.273,-0.18 0.27,1.606 0.269,3.004 0.27,-1.305 0.269,2.398 0.27,-1.05 0.269,-1.77 0.27,0.883 0.269,-2.461 0.27,-1.156 0.27,-0.223 0.269,2.254 0.27,2.933 0.269,-2.359 0.27,2.856 0.269,-1.215 0.27,-1.61 0.269,-1.988 0.274,-0.723 0.269,-0.25 0.27,4.274 0.269,-0.738 0.27,0.753 0.269,-1.343 0.27,2.75 0.269,-1.141 0.27,-3.176 0.269,2.551 0.27,-1.91 0.27,1.129 0.269,1.113 0.27,-2.148 0.269,-1.672 0.27,-0.223 0.269,0.906 0.27,4.219 0.273,-3.308 0.27,4.054 0.269,-1.34 0.27,0.161 0.269,-3.336 0.27,-1.161 0.269,-0.269 0.27,2.18 0.269,2.265 0.27,-1.926 0.269,3.141 0.27,-0.476 0.27,-3.301 0.269,1.879 0.27,-0.164 0.269,-2.329 0.27,1.551 0.269,0.688 0.274,1.84 0.269,-1.114 0.27,-1 0.269,-2.742 0.27,-0.769 0.269,0.339 0.27,0.325 0.269,4.074 0.27,-1.277 0.269,0.613 0.27,1.402 0.269,-0.965 0.27,-3.371 0.27,-0.492 0.269,-1.117 0.27,-0.699 0.269,3.543 0.27,-2.957 0.273,3.859 0.27,0.488 0.269,-1.406 0.27,-1.211 0.269,-0.5 0.27,-1.219 0.269,-0.351 0.27,3.621 0.269,-3.785 0.27,5.562 0.269,-1.168 0.27,-1.015 0.269,-1.555 0.27,-0.149 0.27,-1.355 0.269,0.426 0.27,2.363 0.269,-2.957 0.274,6.582 0.269,-2.785 0.27,-0.711 0.269,-1.801 0.27,0.164 0.269,-1.465 0.27,2.567 0.269,3 0.27,-1.707 0.269,-3.047 0.27,3.187 0.269,3.172 0.27,-1.304 0.269,-0.895 0.27,-2.348 0.27,-1.086 0.269,-0.312 0.27,2.016 0.273,1.972 0.27,-0.746 0.269,1.887 0.27,-3.235 0.269,2.172 0.27,-3.16 0.269,-0.742 0.27,-0.234 0.269,4.007 0.27,-0.105 0.269,-0.68 0.27,2.305 0.269,-1.066 0.27,-0.832 0.269,-2.852 0.27,-0.586 0.27,-0.367 0.269,5.445 0.273,-2.082 0.27,0.715 0.27,1.406 0.269,-1.039 0.27,-1.301 0.269,-2.437 0.27,-0.207 0.269,-0.379 0.27,6.504 0.269,-3.875 0.27,1.976 0.269,0.52 0.27,-1.012 0.269,-1.648 0.27,-1.953 0.269,-0.313 0.27,1.047 0.27,4.391 0.273,-3.325 0.269,3.012 0.27,-0.398 0.27,-0.864 0.269,-2.097 0.27,-1.543 0.269,-0.25 0.27,2.082 0.269,2.945 0.27,-3.058 0.269,3.929 0.27,-1.375 0.269,-0.773 0.27,-2.508 0.269,-1.082 0.27,-0.234 0.269,3.211 0.274,1.171 0.269,-1.738 0.27,3.008 0.269,-1.215 0.27,-0.484 0.27,-3.188 0.269,-0.59 0.27,-0.308 0.269,4.535 0.27,-0.731 0.269,-0.324 0.27,2.063 0.269,-1.133 0.27,-0.914 0.269,-2.785 0.27,-0.282 0.269,-0.371 0.27,-0.425 0.273,1.695 0.27,-1.176 0.269,1.438 0.27,2.699 0.269,-1.918 0.27,-0.817 0.27,-0.949 0.269,-1.078 0.27,-0.867 0.269,3.293 0.27,-2.453 0.269,3.312 0.27,1.024 0.269,-1.512 0.27,-1.203 0.269,-0.633 0.27,-1.187 0.269,-0.493 0.274,3.996 0.269,-3.996 0.27,5.254 0.269,-0.718 0.27,-1.168 0.269,-1.45 0.27,-0.312 0.27,-1.156 0.269,0.183 0.27,2.703 0.269,-3.527 0.27,6.914 0.269,-2.687 0.27,-0.825 0.269,-1.679 0.27,0.101 0.269,-1.379 0.27,1 0.273,1.344 0.27,-1.777 0.269,5.496 0.27,-2.446 0.269,-2.355 0.27,-0.918 0.269,4.586 0.27,-2.355 0.27,-0.641 0.269,-1.43 0.27,-0.449 0.269,0.453 0.27,2.449 0.269,-3.238 0.27,6.75 0.269,-2.719 0.27,0.149 0.269,-2.637 0.274,-0.844 0.269,-0.488 0.27,1.203 0.269,1.07 0.27,-1.464 0.269,5.269 0.27,-1.066 0.269,1.074 0.27,-1.156 0.27,-2.532 0.269,-1.734 0.27,0.461 0.269,2.531 0.27,1.641 0.269,-0.418 0.27,1.93 0.269,-1.215 0.27,-0.5 0.273,-3.235 0.27,-0.496 0.269,-0.324 0.27,3.602 0.269,-0.02 0.27,1.098 0.269,0.758 0.27,-1.024 0.269,-1.016 0.27,-2.808 0.27,-0.207 0.269,-0.473 0.27,4.879 0.269,-1.875 0.27,2.359 0.269,-0.492 0.27,-0.629 0.269,-1.355 0.274,-2.207 0.269,-0.371 0.27,-0.332 0.269,6.187 0.27,-3.113 0.269,2.187 0.27,-0.089 0.269,-0.942 0.27,-1.875 0.269,-1.668 0.27,-0.34 0.27,0.664 0.269,5.286 0.27,-4.09 0.269,3.996 0.27,-1.231 0.269,-0.878 0.27,-2.247 0.273,-1.308 0.27,-0.309 0.269,1.742 0.27,3.747 0.269,-2.875 0.27,3.117 0.269,-1.035 0.27,-1.008 0.269,-2.602 0.27,-0.894 0.269,-0.664 0.27,2.957 0.27,2.273 0.269,-13.07 0.27,0.773 0.269,0.02 0.27,-0.008 0.269,0 0.274,-0.012 0.269,0.012 0.809,0 0.269,0.008 0.27,-0.02 0.269,0.02 0.27,-0.008 0.539,0 0.269,-0.012 0.27,0.012 0.27,0.008 0.269,-0.02 0.27,0.02 0.269,24.672 0.27,13.14 0.273,0.383 0.27,0.309 0.269,-0.786 0.27,0.149 0.269,-0.102 0.27,-0.691 0.269,0.617 0.27,0.512 0.269,0.215 0.27,-0.395 0.269,-0.18 0.27,0.247 0.269,-0.965 0.27,0.414 0.27,0.57 0.269,0.406 0.27,-0.199 0.269,-0.668 0.274,0.371 0.269,-0.562 0.27,-0.032 0.269,0.829 0.27,0.086 0.269,0.007 0.27,-0.476 0.269,0.051 0.27,-0.247 0.269,-0.281 0.27,0.504 0.269,0.426 0.27,-0.145 0.269,-0.179 0.27,-0.075 0.27,-0.355 0.269,-0.375 0.27,1.031 0.273,-0.019 0.27,0.14 0.269,-0.386 0.27,0.285 0.269,0.113 0.27,-0.613 0.269,0.293 0.27,0.398 0.269,-0.625 0.27,0.067 0.269,0.55 0.27,-0.476 0.269,-0.129 0.27,0.305 0.269,0.031 0.27,-0.352 0.27,0.035 0.269,0.633 0.274,-0.586 0.269,-0.117 0.27,0.488 0.269,-0.296 0.27,-0.372 0.269,0.442 0.27,0.238 0.269,-0.43 0.27,-0.214 0.269,0.781 0.27,-0.496 0.269,-0.008 0.27,0.457 0.269,-0.242 0.27,-0.399 0.269,0.5 0.27,-0.062 0.273,-0.52 0.27,0.321 0.27,0.539 0.269,-0.676 0.27,-0.348 0.269,0.84 0.27,-0.168 0.269,-0.625 0.27,0.383 0.269,0.66 0.27,-2.211 0.269,6.399 0.27,-0.153 0.269,0.211 0.27,0.106 0.269,-0.098 0.27,0.465 0.269,-0.586 0.274,0.141 0.269,-0.125 0.27,0.105 0.27,0.117 0.269,-0.078 0.27,0.578 0.269,-0.566 0.27,-0.262 0.269,0.285 0.27,-0.39 0.269,0.379 0.27,0.328 0.269,-0.282 0.27,-0.199 0.269,-0.09 0.27,0.184 0.269,0.117 0.27,-0.195 0.273,0.527 0.27,-0.801 0.269,0.489 0.27,-0.328 0.27,0.269 0.269,0.125 0.27,-0.434 0.269,0.524 0.27,-0.149 0.269,-0.418 0.27,0.372 0.269,-0.161 0.27,0.375 0.269,0.27 0.27,-0.734 0.269,0.054 0.27,0.028 0.269,0.023 0.274,0.129 0.269,-0.094 0.27,0.539 0.269,-0.82 0.27,0.289 0.27,-0.074 0.269,0.062 0.27,0.133 0.269,0.035 0.27,0.145 0.269,-0.352 0.27,-0.179 0.269,0.324 0.27,-0.52 0.269,0.66 0.27,0.243 0.269,-0.469 0.27,-0.043 0.273,-0.211 0.27,0.133 0.269,0.187 0.27,8.461 0.269,6.055 0.27,-2.457 0.27,0.23 0.269,8.946 0.27,-10.137 0.269,0.793 0.27,8.316 0.269,-7.961 0.27,-0.535 0.269,9.75 0.27,-10.656 0.269,1.152 0.27,2.246 0.269,3.864 0.274,-5.911 0.269,-0.742 0.27,8.84 0.269,-8.531 0.27,-0.238 0.269,9.636 0.27,-9.367 0.27,0.227 0.269,5.054 0.27,-2.566 0.269,-2.434 0.27,0.375 0.269,8.692 0.27,-9.946 0.269,0.508 0.27,8.938 0.269,-8.235 0.27,-0.73 0.273,9.879 0.27,-10.574 0.269,1.027 0.27,2.383 0.269,3.703 0.27,-5.867 0.269,-0.621 0.27,8.879 0.27,-8.946 0.269,0.145 0.27,9.523 0.269,-9.418 0.27,0.539 0.269,4.418 0.27,-2.297 0.269,-2.429 0.27,0.093 0.269,9.008 0.274,-10.23 0.269,1.215 0.27,8.914 0.269,-8.571 0.27,-1.164 0.269,10.243 0.27,-10.465 0.269,0.949 0.27,2.129 0.27,3.715 0.269,-5.571 0.27,-0.675 0.269,8.656 0.27,-21.676 0.269,-5.523 0.27,-0.934 0.269,0 0.27,-0.008 0.273,0.211 0.27,-0.07 0.269,-0.125 0.27,-0.246 0.269,0.707 0.27,-0.16 0.269,-0.289 0.27,-0.102 0.269,0.176 0.27,-0.106 0.27,0.461 0.269,-0.449 0.27,-0.305 0.269,0.617 0.27,-0.199 0.269,-0.039 0.27,0.133 0.269,-0.125 0.274,0.063 0.269,-0.176 0.27,-0.114 0.269,-0.019 0.27,0.867 0.269,-0.547 0.27,0.043 0.269,-0.051 0.27,0.043 0.269,-0.382 0.27,0.414 0.27,-0.344 0.269,0.008 0.27,0.652 0.269,-0.461 0.27,0.047 0.269,-0.094 0.27,0.063 0.273,0.035 0.27,0.129 0.269,-0.246 0.27,-0.067 0.269,0.578 0.27,-0.39 0.269,0.109 0.27,-0.305 0.269,0.168 0.27,0.02 0.269,0.098 0.27,-0.008 0.27,-0.492 0.269,0.707 0.27,-0.207 0.269,-0.102 0.27,-0.039 0.269,0.18 0.274,-0.254 0.269,0.066 0.27,0.055 0.269,-0.594 0.27,0.879 0.269,-0.172 0.27,-0.015 0.269,-0.25 0.27,0.339 0.269,-0.316 0.27,0.187 0.269,-0.148 0.27,-0.156 0.27,0.691 0.269,-0.144 0.27,-0.141 0.269,-0.246 0.27,0.207 0.273,0.062 0.27,-0.05 0.269,-0.285 0.27,-0.004 0.269,-5.696 0.27,-22.109 0.269,-0.328 0.27,3.109 0.269,-3.824 0.27,5.844 0.269,-1.492 0.27,-0.965 0.269,-1.567 0.27,-1.066 0.27,0.133 0.269,0.476 0.27,1.692 0.269,-2.766 0.274,6.348 0.269,-2.559 0.27,-0.769 0.269,-1.903 0.27,-0.695 0.269,0.133 0.27,1.101 0.269,2.008 0.27,2.922 0.269,-2.715 0.27,0.43 0.269,-2.453 0.27,-1.051 0.269,-0.574 0.27,-0.446 0.27,2.305 0.269,0.277 0.273,0.075 0.27,-0.688 0.27,3.918 0.269,-2.195 0.27,-0.535 0.269,-2.106 0.27,-0.465 0.269,-0.597 0.27,2.652 0.269,-0.703 0.27,1.144 0.269,2.344 0.27,-1.832 0.269,-0.894 0.27,-2.375 0.269,1.328 0.27,-0.403 0.27,6.043 0.273,-3.257 0.269,1.621 0.27,0.785 0.27,-0.926 0.269,-1.594 0.27,-2.125 0.269,-0.34 0.27,0.801 0.269,5.078 0.27,-4.511 0.269,3.078 0.27,0.304 0.269,-0.867 0.27,-1.644 0.269,1.207 0.27,-2.516 0.269,-2 0.27,0.738 0.273,-0.285 0.27,6.27 0.269,-3.563 0.27,2.59 0.27,0.145 0.269,-0.942 0.27,-1.121 0.269,-2.238 0.27,-0.656 0.269,-0.942 0.27,-0.508 0.269,5.239 0.27,2.769 0.269,-4.16 0.27,2.27 0.269,0.304 0.27,-0.922 0.269,-1.781 0.274,-1.914 0.269,-0.238 0.27,1.199 0.269,4.41 0.27,-3.75 0.27,3.36 0.269,-0.543 0.27,-0.864 0.269,-2.172 0.27,-1.386 0.269,-0.282 0.27,2.133 0.269,2.84 0.27,-2.969 0.269,3.633 0.27,-0.945 0.269,-1.043 0.27,-2.496 0.273,-0.934 0.27,-0.34 0.269,3.328 0.27,0.93 0.269,-1.433 0.27,2.839 0.27,-1.144 0.269,-0.656 0.27,-3.114 0.269,-0.586 0.27,-0.293 0.269,4.122 0.27,-0.344 0.269,-0.203 0.27,1.996 0.269,-1.114 0.27,-1.035 0.269,-2.742 0.274,-0.25 0.269,-0.531 0.27,5.949 0.269,-2.793 0.27,1.227 0.269,-2.301 0.27,2.168 0.27,0.601 0.269,-1.886 0.27,0.711 0.269,-2.715 0.27,-0.551 0.269,-0.223 0.27,4.442 0.269,-0.766 0.27,0.711 0.269,0.934 0.27,-1.039 0.273,-1.328 0.27,-2.418 0.269,-0.329 0.27,-0.277 0.269,5.629 0.27,-2.406 0.269,1.894 0.27,0.055 0.27,-0.941 0.269,-1.817 0.27,-1.914 0.269,-0.238 0.27,0.375 0.269,5.988 0.27,-4.488 0.269,3.64 0.27,-0.839 0.269,-0.899 0.274,-2.183 0.269,-1.297 0.27,-0.34 0.269,1.305 0.27,4.328 0.269,-3.422 0.27,3.441 0.269,-0.926 0.27,-1.011 0.27,-2.532 0.269,-1.082 0.27,-0.191 0.269,2.547 0.27,2.281 0.269,-1.703 0.27,2.543 0.269,-1.18 0.27,-0.551 0.273,-3.187 0.27,-0.543 0.269,-0.309 0.27,3.653 0.269,0.359 0.27,-0.582 0.269,2.082 0.27,-1.117 0.269,-0.93 0.27,-2.859 0.27,-0.219 0.269,-0.43 0.27,4.899 0.269,-1.172 0.27,0.836 0.269,0.383 0.27,0.062 0.269,-0.117 0.274,0.297 0.269,-1.836 0.27,0.438 0.269,-2.383 0.27,4 0.269,-0.188 0.27,-0.101 0.269,0.125 0.27,-2.828 0.269,-1.872 0.27,-0.324 0.27,0.449 0.269,5.016 0.27,-3.531 0.269,3.621 0.27,-0.875 0.269,0.09 0.27,-3.117 0.273,-1.43 0.27,-0.254 0.269,1.605 0.27,3.125 0.269,-2.457 0.27,3.481 0.269,-1.09 0.27,-0.004 0.269,-3.508 0.27,-0.898 0.269,-0.356 0.27,2.77 0.27,1.355 0.269,-1.105 0.27,2.613 0.269,-0.164 0.27,-1.637 0.269,-3.039 0.274,-0.496 0.269,-0.484 0.27,3.949 0.269,-0.308 0.27,0.222 0.269,1.735 0.27,0.019 0.269,-2.176 0.27,-1.136 0.269,2.937 0.27,-2.348 0.269,2.852 0.27,-2.75 0.27,2.273 0.269,-0.957 0.27,-1.73 0.269,-1.922 0.27,0.242 0.273,0.172 0.27,4.875 0.269,-3.711 0.27,3.379 0.269,-0.582 0.27,-0.914 0.269,-2.086 0.27,-1.375 0.269,0.211 0.27,1.211 0.269,3.172 0.27,-2.949 0.269,3.812 0.27,-1.164 0.27,-0.867 0.269,-2.582 0.27,-0.961 0.269,0.359 0.274,1.973 0.269,1.664 0.27,-1.516 0.269,2.871 0.27,-1.179 0.269,-0.5 0.27,-3.266 0.269,-0.527 0.27,0.328 0.269,3.391 0.27,-0.329 0.269,-0.086 0.27,1.891 0.269,-1.094 0.27,-0.949 0.27,-2.824 0.269,-0.16 0.274,0.054 0.269,4.625 0.27,-2.128 0.269,1.222 0.27,1.09 0.269,-1.055 0.27,-1.457 0.269,-2.207 0.27,0.305 0.269,-0.863 0.27,6.398 0.269,-4.09 0.27,2.571 0.269,0.164 0.27,-0.926 0.269,-1.906 0.27,-1.727 0.27,0.258 0.273,0.324 0.27,4.504 0.269,-3.461 0.27,3.555 0.269,-0.821 0.27,-0.878 0.269,-2.231 0.27,-1.309 0.269,0.301 0.27,1.356 0.269,2.816 0.27,-2.527 0.269,3.496 0.27,-1.106 0.269,-0.902 0.27,-2.672 0.269,-0.953 0.27,0.297 0.273,-10.055 0.27,2.098 0.27,-0.012 0.269,0.02 0.27,-0.008 0.269,-0.012 0.27,0.02 0.269,-0.02 0.27,0.012 0.269,0.008 0.27,-0.008 0.269,-0.012 0.27,0.02 0.269,-0.008 0.27,-0.012 0.269,0.02 0.27,-0.02 0.269,0.012 0.543,0 0.27,0.008 0.27,31.675 0.269,6.583 0.27,-0.165 0.269,-0.011 0.27,-0.516 0.269,0.332 0.27,0.012 0.269,0.238 0.27,0.27 0.269,0.109 0.27,-0.168 0.269,-0.254 0.27,0.141 0.269,0.023 0.27,-0.769 0.273,-0.039 0.27,0.656 0.269,0.254 0.27,-0.192 0.27,0.188 0.269,0.098 0.27,-0.172 0.269,-0.094 0.27,-0.09 0.269,-0.137 0.27,-0.242 0.269,0.145 0.27,0.269 0.269,-0.051 0.27,0.094 0.269,0.16 0.27,-0.183 0.269,0.148 0.274,0.039 0.269,-0.191 0.27,-0.391 0.269,-0.039 0.27,0.43 0.27,-0.246 0.269,0.941 0.27,-0.305 0.269,-0.109 0.27,-0.164 0.269,0.227 0.27,0.101 0.269,-0.34 0.27,0.082 0.269,0.481 0.27,-0.692 0.269,0.149 0.27,0.402 0.273,-0.152 0.27,-0.227 0.269,0.016 0.27,0.156 0.269,-0.34 0.27,0.282 0.27,0.316 0.269,-0.457 0.27,0.008 0.269,0.402 0.27,-0.332 0.269,-0.059 0.27,0.036 0.269,0.41 0.27,-0.781 0.269,0.265 0.27,0.602 0.269,-0.649 0.274,0.008 0.269,0.231 0.27,0.043 0.269,-0.11 0.27,-0.117 0.269,0.691 0.27,-0.855 0.27,0.199 0.269,0.301 0.27,0.008 0.269,-0.239 0.27,0.122 0.269,-0.02 0.27,-0.809 0.269,4.75 0.27,0.368 0.269,0.398 0.27,-0.211 0.273,0.262 0.27,-0.422 0.269,0.055 0.27,0.023 0.269,-0.203 0.27,0.277 0.269,0.075 0.27,0.148 0.27,-0.113 0.269,-0.321 0.27,0.129 0.269,-0.402 0.27,0.723 0.269,-0.094 0.27,-0.238 0.269,-0.036 0.27,-0.32 0.269,0.309 0.274,0.16 0.269,-0.059 0.27,0.364 0.269,-0.52 0.27,0.238 0.269,-0.172 0.27,-0.14 0.269,0.383 0.27,-0.258 0.27,0.277 0.269,-0.387 0.27,0.039 0.269,-0.015 0.27,0 0.269,0.051 0.27,0.546 0.269,-0.472 0.27,-0.156 0.273,-0.125 0.27,0.234 0.269,0.293 0.27,-0.313 0.269,0.512 0.27,-0.488 0.269,0.035 0.27,-0.25 0.269,0.102 0.27,0.476 0.27,-0.328 0.269,0.434 0.27,-0.434 0.269,-0.191 0.27,0.039 0.269,-0.047 0.27,0.133 0.269,0.597 0.274,-0.66 0.269,0.274 0.27,-0.375 0.269,0.121 0.27,0.16 0.269,-1.324 0.27,9.859 0.269,12.203 0.27,-8.809 0.269,0.239 0.27,8.886 0.27,-9.382 0.269,0.05 0.27,8.915 0.269,-8.54 0.27,0.043 0.269,2.645 0.27,1.598 0.273,-4.403 0.27,-0.441 0.269,9.371 0.27,-8.961 0.269,-0.18 0.27,8.176 0.269,-8.75 0.27,0.961 0.269,5.297 0.27,-2.027 0.269,-4.348 0.27,0.746 0.27,8.73 0.269,-8.617 0.27,0.414 0.269,8.493 0.27,-9.422 0.273,0.156 0.27,9.207 0.269,-8.848 0.27,0.262 0.269,2.652 0.27,1.375 0.269,-3.922 0.27,-0.882 0.269,9.683 0.27,-9.394 0.269,0.285 0.27,8.16 0.269,-8.262 0.27,0.368 0.27,5.578 0.269,-2.618 0.27,-4.074 0.269,0.34 0.274,8.836 0.269,-8.172 0.27,0.043 0.269,8.504 0.27,-9.047 0.269,-0.183 0.27,8.937 0.269,-8.059 0.27,-0.57 0.269,3.16 0.27,1.735 0.269,-4.575 0.27,-0.503 0.269,9.578 0.27,-9.493 0.27,0.223 0.269,8.61 0.27,-24.719 0.273,-2.645 0.27,-0.742 0.269,-0.152 0.27,-0.168 0.269,0.078 0.27,0.152 0.269,-0.152 0.27,-0.086 0.269,-0.496 0.27,1.351 0.269,-0.543 0.27,-0.062 0.269,-0.379 0.27,0.23 0.269,-0.07 0.27,-0.012 0.27,0.016 0.269,-0.199 0.273,0.504 0.27,-0.121 0.27,-0.145 0.269,-0.094 0.27,-0.054 0.269,0.136 0.27,-0.027 0.269,0.074 0.27,-0.363 0.269,0.883 0.27,-0.258 0.269,0.016 0.27,-0.532 0.269,0.496 0.27,-0.312 0.269,0.168 0.27,-0.313 0.27,-0.175 0.273,0.976 0.269,-0.351 0.27,-0.258 0.27,-0.027 0.269,0.167 0.27,-0.281 0.269,0.321 0.27,-0.102 0.269,-0.309 0.27,0.59 0.269,-0.219 0.27,-0.167 0.269,0.136 0.27,-0.019 0.269,-0.051 0.539,0.094 0.27,-0.313 0.273,0.758 0.27,-0.293 0.269,-0.176 0.27,-0.179 0.27,0.113 0.269,0.074 0.27,-0.09 0.269,-0.035 0.27,-0.18 0.269,0.621 0.27,-0.429 0.269,0.121 0.27,-0.106 0.269,-0.046 0.27,0.015 0.269,0.152 0.27,-0.218 0.269,-0.188 0.274,0.93 0.269,-0.379 0.27,-0.195 0.269,-0.157 0.27,0.161 0.27,-0.09 0.269,0.187 0.27,-0.429 0.269,-8.754 0.27,-19.016 0.269,0.32 0.27,2.024 0.269,-3.219 0.27,6.77 0.269,-2.758 0.27,-0.727 0.269,-1.785 0.27,-0.812 0.273,0.117 0.27,1.011 0.269,0.731 0.27,-1.555 0.269,5.278 0.27,-2.536 0.27,-0.406 0.269,-2.211 0.27,-0.472 0.269,0.16 0.27,4.164 0.269,0.156 0.27,-0.562 0.269,2.238 0.27,-1.117 0.269,-0.852 0.27,-2.719 0.269,-0.601 0.274,0.359 0.269,4.024 0.27,-1.45 0.269,0.871 0.27,1.282 0.269,-1.004 0.27,-2.5 0.27,-0.352 0.269,-1.156 0.27,-0.379 0.269,5.555 0.27,-2.977 0.269,2.215 0.27,0.344 0.269,-0.942 0.27,-1.781 0.269,-0.973 0.27,-1.148 0.273,0.164 0.27,5.395 0.269,-3.7 0.27,3.348 0.269,-0.582 0.27,-0.914 0.269,-2.07 0.27,-0.524 0.27,-1.164 0.269,1.246 0.27,-0.496 0.269,0.375 0.27,0.227 0.269,3.98 0.27,-3.195 0.269,2.656 0.27,0.078 0.269,-0.871 0.274,-1.863 0.269,-1.883 0.27,-0.266 0.269,0.481 0.27,5.797 0.269,-4.375 0.27,3.844 0.269,-1.079 0.27,-0.949 0.27,-2.129 0.269,-1.414 0.27,-0.207 0.269,1.653 0.27,3.902 0.269,-3.18 0.27,2.27 0.269,-0.028 0.27,-0.902 0.273,-2.609 0.27,-0.883 0.269,-0.34 0.27,2.703 0.269,2.203 0.27,-1.789 0.269,2.535 0.27,-1.156 0.269,-0.648 0.27,-3.055 0.27,-0.602 0.269,-0.281 0.27,3.852 0.269,0.277 0.27,-0.035 0.269,1.41 0.27,-1.059 0.269,-1.101 0.274,-2.707 0.269,-0.176 0.27,-0.562 0.269,5.113 0.27,-1.399 0.269,1.114 0.27,0.539 0.269,-1.031 0.27,-1.391 0.269,-2.297 0.27,-0.238 0.27,-0.274 0.269,5.106 0.27,-6.539 0.269,6.484 0.27,-0.019 0.269,-0.989 0.27,-1.851 0.273,-1.649 0.27,0.149 0.269,0.738 0.27,4.078 0.269,-3.715 0.27,4.313 0.269,-1.305 0.27,-0.808 0.269,-2.344 0.27,-1.196 0.269,0.254 0.27,1.469 0.27,2.586 0.269,-2.266 0.27,3.418 0.269,-1.125 0.27,-0.918 0.273,-2.75 0.27,-0.8 0.269,0.222 0.27,2.797 0.269,0.738 0.27,-0.921 0.269,2.461 0.27,-1.137 0.269,-0.68 0.27,-2.941 0.269,-0.555 0.27,0.18 0.269,4.011 0.27,-1.121 0.27,0.442 0.269,1.578 0.27,-1.09 0.269,-1.113 0.274,-2.543 0.269,0.164 0.27,-0.754 0.269,5.648 0.27,-2.996 0.269,1.805 0.27,0.66 0.269,-0.961 0.27,-1.637 0.269,-1.992 0.27,0.289 0.269,-0.359 0.27,5.555 0.269,-3.993 0.27,3.247 0.27,-0.364 0.269,-0.832 0.27,-2.066 0.273,-1.594 0.27,0.316 0.269,0.723 0.27,3.762 0.269,-3.207 0.27,4.008 0.269,-1.325 0.27,-0.789 0.269,-2.48 0.27,-1.113 0.269,0.222 0.27,1.961 0.269,2.055 0.27,-1.942 0.269,3.122 0.27,-1.231 0.27,-0.57 0.269,-3.332 0.274,-0.387 0.269,0.356 0.27,3.097 0.269,-0.402 0.27,-5.356 0.269,3.703 0.27,3.211 0.269,-0.257 0.27,0.191 0.269,-0.883 0.27,-1.816 0.269,-0.797 0.27,-0.066 0.269,-1.129 0.27,2.156 0.269,2.226 0.27,-1.722 0.27,2.953 0.273,-1.141 0.27,-0.57 0.269,-3.106 0.27,0.223 0.269,-1.035 0.27,3.293 0.269,0.375 0.27,-0.305 0.269,2.063 0.27,-1.133 0.269,-0.879 0.27,-2.176 0.269,-0.777 0.27,-0.649 0.269,4.536 0.27,-1.356 0.269,1.024 0.27,1.191 0.273,-1 0.27,-1.398 0.27,-1.387 0.269,-1.199 0.27,-0.293 0.269,5.59 0.27,-3.168 0.269,2.402 0.27,0.254 0.269,-0.926 0.27,-1.828 0.269,-1 0.27,-1.078 0.269,-2.555 0.27,7.008 0.269,-3.063 0.27,0.832 0.269,2.844 0.274,-0.308 0.269,-1.024 0.27,-1.832 0.27,-1.691 0.269,-0.27 0.27,0.832 0.269,5.188 0.27,-4.317 0.269,4.321 0.27,-1.438 0.269,-0.777 0.27,-2.34 0.269,-1.289 0.27,-0.281 0.269,1.918 0.27,3.293 0.269,-2.485 0.27,3.074 0.273,-1.125 0.27,-0.902 0.269,-2.766 0.27,-0.785 0.27,-0.863 0.269,2.145 0.27,-0.875 0.269,-0.09 0.27,4.004 0.269,-2.176 0.27,-0.598 0.269,-2.074 0.27,-0.477 0.269,-0.597 0.27,3.633 0.269,-2.325 0.27,1.75 0.269,2.422 0.274,-1.91 0.269,-0.848 0.27,-1.882 0.269,-0.18 0.27,-0.711 0.27,4.473 0.269,-3.789 0.27,3.656 0.269,0.625 0.27,-1.41 0.269,-1.18 0.27,-1.555 0.269,-0.211 0.27,0.371 0.269,3.09 0.27,-4.047 0.269,5.578 0.27,-1.042"
           style="fill:none;stroke:#99d594;stroke-width:2.13395691;stroke-linecap:butt;stroke-linejoin:round;stroke-miterlimit:1;stroke-dasharray:none;stroke-opacity:1"
           id="path32361"
           inkscape:connector-curvature="0" /></g></g><path
       inkscape:connector-curvature="0"
       id="path32379"
       style="fill:none;stroke:#333333;stroke-width:1.06697798;stroke-linecap:butt;stroke-linejoin:round;stroke-miterlimit:10;stroke-dasharray:none;stroke-opacity:1"
       d="m 44.729818,201.74624 2.739,0" /><path
       inkscape:connector-curvature="0"
       id="path32381"
       style="fill:none;stroke:#333333;stroke-width:1.06697798;stroke-linecap:butt;stroke-linejoin:round;stroke-miterlimit:10;stroke-dasharray:none;stroke-opacity:1"
       d="m 45.021239,221.09293 2.739,0" /><path
       inkscape:connector-curvature="0"
       id="path32383"
       style="fill:none;stroke:#333333;stroke-width:1.06697798;stroke-linecap:butt;stroke-linejoin:round;stroke-miterlimit:10;stroke-dasharray:none;stroke-opacity:1"
       d="m 44.902,240.4331 2.739,0" /><path
       inkscape:connector-curvature="0"
       id="path32385"
       style="fill:none;stroke:#333333;stroke-width:1.06697798;stroke-linecap:butt;stroke-linejoin:round;stroke-miterlimit:10;stroke-dasharray:none;stroke-opacity:1"
       d="m 44.784843,259.67913 2.739,0" /><path
       inkscape:connector-curvature="0"
       id="path32405"
       style="fill:#f2f2f2;fill-opacity:1;fill-rule:nonzero;stroke:#ffffff;stroke-width:1.06697798;stroke-linecap:round;stroke-linejoin:round;stroke-miterlimit:10;stroke-dasharray:none;stroke-opacity:1"
       d="m 221.723,286.652 17.281,0 0,-17.281 -17.281,0 0,17.281 z" /><path
       inkscape:connector-curvature="0"
       id="path32407"
       style="fill:none;stroke:#fc8d59;stroke-width:2.13395691;stroke-linecap:butt;stroke-linejoin:round;stroke-miterlimit:10;stroke-dasharray:none;stroke-opacity:1"
       d="m 223.449,278.011 13.824,0" /><path
       inkscape:connector-curvature="0"
       id="path32409"
       style="fill:#f2f2f2;fill-opacity:1;fill-rule:nonzero;stroke:#ffffff;stroke-width:1.06697798;stroke-linecap:round;stroke-linejoin:round;stroke-miterlimit:10;stroke-dasharray:none;stroke-opacity:1"
       d="m 389.57,286.652 17.281,0 0,-17.281 -17.281,0 0,17.281 z" /><path
       inkscape:connector-curvature="0"
       id="path32411"
       style="fill:none;stroke:#99d594;stroke-width:2.13395691;stroke-linecap:butt;stroke-linejoin:round;stroke-miterlimit:10;stroke-dasharray:none;stroke-opacity:1"
       d="m 391.301,278.011 13.82,0" /><text
       xml:space="preserve"
       style="font-style:normal;font-weight:normal;font-size:12px;line-height:125%;font-family:sans-serif;letter-spacing:-1.60000002px;word-spacing:0px;fill:#000000;fill-opacity:1;stroke:none;stroke-width:1px;stroke-linecap:butt;stroke-linejoin:miter;stroke-opacity:1"
       x="-47.070717"
       y="-283.55402"
       id="text33015"
       sodipodi:linespacing="125%"
       transform="scale(1,-1)"><tspan
         sodipodi:role="line"
         id="tspan33017"
         x="-47.070717"
         y="-283.55402" /></text>
<text
       xml:space="preserve"
       style="font-style:normal;font-weight:normal;font-size:12px;line-height:125%;font-family:sans-serif;letter-spacing:-1.60000002px;word-spacing:0px;fill:#000000;fill-opacity:1;stroke:none;stroke-width:1px;stroke-linecap:butt;stroke-linejoin:miter;stroke-opacity:1"
       x="-34.644051"
       y="-246.27399"
       id="text33019"
       sodipodi:linespacing="125%"
       transform="scale(1,-1)"><tspan
         sodipodi:role="line"
         id="tspan33021"
         x="-34.644051"
         y="-246.27399" /></text>
<text
       xml:space="preserve"
       style="font-style:normal;font-weight:normal;font-size:12px;line-height:125%;font-family:sans-serif;letter-spacing:-1.60000002px;word-spacing:0px;fill:#000000;fill-opacity:1;stroke:none;stroke-width:1px;stroke-linecap:butt;stroke-linejoin:miter;stroke-opacity:1"
       x="29.750002"
       y="-236.12021"
       id="text33027"
       sodipodi:linespacing="125%"
       transform="scale(1,-1)"><tspan
         sodipodi:role="line"
         id="tspan33029"
         x="29.750002"
         y="-236.12021"
         style="font-style:normal;font-variant:normal;font-weight:normal;font-stretch:normal;font-size:15px;font-family:Arial;-inkscape-font-specification:Arial">12</tspan></text>
<text
       xml:space="preserve"
       style="font-style:normal;font-variant:normal;font-weight:normal;font-stretch:normal;font-size:15px;line-height:125%;font-family:Arial;-inkscape-font-specification:Arial;letter-spacing:-1.60000002px;word-spacing:0px;fill:#000000;fill-opacity:1;stroke:none;stroke-width:1px;stroke-linecap:butt;stroke-linejoin:miter;stroke-opacity:1"
       x="29.632845"
       y="-254.63651"
       id="text33031"
       sodipodi:linespacing="125%"
       transform="scale(1,-1)"><tspan
         sodipodi:role="line"
         id="tspan33033"
         x="29.632845"
         y="-254.63651">16</tspan></text>
<text
       xml:space="preserve"
       style="font-style:normal;font-weight:normal;font-size:12px;line-height:125%;font-family:sans-serif;letter-spacing:-1.60000002px;word-spacing:0px;fill:#000000;fill-opacity:1;stroke:none;stroke-width:1px;stroke-linecap:butt;stroke-linejoin:miter;stroke-opacity:1"
       x="35.694633"
       y="-215.62439"
       id="text33027-6"
       sodipodi:linespacing="125%"
       transform="scale(1,-1)"><tspan
         sodipodi:role="line"
         id="tspan33029-6"
         x="35.694633"
         y="-215.62439"
         style="font-style:normal;font-variant:normal;font-weight:normal;font-stretch:normal;font-size:15px;font-family:Arial;-inkscape-font-specification:Arial">8</tspan></text>
<text
       xml:space="preserve"
       style="font-style:normal;font-weight:normal;font-size:12px;line-height:125%;font-family:sans-serif;letter-spacing:-1.60000002px;word-spacing:0px;fill:#000000;fill-opacity:1;stroke:none;stroke-width:1px;stroke-linecap:butt;stroke-linejoin:miter;stroke-opacity:1"
       x="35.820686"
       y="-196.20744"
       id="text33027-3"
       sodipodi:linespacing="125%"
       transform="scale(1,-1)"><tspan
         sodipodi:role="line"
         id="tspan33029-9"
         x="35.820686"
         y="-196.20744"
         style="font-style:normal;font-variant:normal;font-weight:normal;font-stretch:normal;font-size:15px;font-family:Arial;-inkscape-font-specification:Arial">4</tspan></text>
<text
       xml:space="preserve"
       style="font-style:normal;font-weight:normal;font-size:25px;line-height:125%;font-family:sans-serif;letter-spacing:-1.60000002px;word-spacing:0px;fill:#000000;fill-opacity:1;stroke:none;stroke-width:1px;stroke-linecap:butt;stroke-linejoin:miter;stroke-opacity:1"
       x="219.9429"
       y="24.834499"
       id="text5363"
       sodipodi:linespacing="125%"
       transform="matrix(0,1,1,0,0,0)"><tspan
         sodipodi:role="line"
         id="tspan5365"
         x="219.9429"
         y="24.834499"
         style="font-style:normal;font-variant:normal;font-weight:bold;font-stretch:normal;font-size:15px;font-family:Arial;-inkscape-font-specification:'Arial Bold';letter-spacing:0px">IPC</tspan></text>
<text
       xml:space="preserve"
       style="font-style:normal;font-weight:normal;font-size:25px;line-height:125%;font-family:sans-serif;letter-spacing:-1.60000002px;word-spacing:0px;fill:#000000;fill-opacity:1;stroke:none;stroke-width:1px;stroke-linecap:butt;stroke-linejoin:miter;stroke-opacity:1"
       x="352.44778"
       y="-173.9474"
       id="text5367"
       sodipodi:linespacing="125%"
       transform="scale(1,-1)"><tspan
         sodipodi:role="line"
         id="tspan5369"
         x="352.44778"
         y="-173.9474"
         style="font-style:normal;font-variant:normal;font-weight:normal;font-stretch:normal;font-size:12px;font-family:Arial;-inkscape-font-specification:Arial;letter-spacing:-0.33822104px">Time Tick</tspan></text>
<text
       xml:space="preserve"
       style="font-style:normal;font-weight:normal;font-size:25px;line-height:125%;font-family:sans-serif;letter-spacing:-1.60000002px;word-spacing:0px;fill:#000000;fill-opacity:1;stroke:none;stroke-width:1px;stroke-linecap:butt;stroke-linejoin:miter;stroke-opacity:1"
       x="200.7141"
       y="-138.12767"
       id="text4187"
       sodipodi:linespacing="125%"
       transform="scale(1,-1)"><tspan
         sodipodi:role="line"
         id="tspan4189"
         x="200.7141"
         y="-138.12767" /></text>
<text
       xml:space="preserve"
       style="font-style:normal;font-weight:normal;font-size:15px;line-height:125%;font-family:sans-serif;letter-spacing:-1.60000002px;word-spacing:0px;fill:#000000;fill-opacity:1;stroke:none;stroke-width:1px;stroke-linecap:butt;stroke-linejoin:miter;stroke-opacity:1"
       x="243.11404"
       y="-272.97153"
       id="text4191"
       sodipodi:linespacing="125%"
       transform="scale(1,-1)"><tspan
         sodipodi:role="line"
         id="tspan4193"
         x="243.11404"
         y="-272.97153"
         style="font-style:normal;font-variant:normal;font-weight:normal;font-stretch:normal;font-size:12px;font-family:Arial;-inkscape-font-specification:Arial;letter-spacing:0px">16 Fused Cores                         4 Fused Cores</tspan></text>
<text
       xml:space="preserve"
       style="font-style:normal;font-weight:normal;font-size:15px;line-height:125%;font-family:sans-serif;letter-spacing:-1.60000002px;word-spacing:0px;fill:#000000;fill-opacity:1;stroke:none;stroke-width:1px;stroke-linecap:butt;stroke-linejoin:miter;stroke-opacity:1"
       x="417.11411"
       y="-301.3277"
       id="text4195"
       sodipodi:linespacing="125%"
       transform="scale(1,-1)"><tspan
         sodipodi:role="line"
         id="tspan4197"
         x="417.11411"
         y="-301.3277"
         style="font-style:normal;font-variant:normal;font-weight:normal;font-stretch:normal;font-size:12px;font-family:Arial;-inkscape-font-specification:Arial;letter-spacing:0px" /></text>
</g></svg>